<?xml version="1.0" encoding="utf-8" standalone="no"?>
<!DOCTYPE svg PUBLIC "-//W3C//DTD SVG 1.1//EN"
  "http://www.w3.org/Graphics/SVG/1.1/DTD/svg11.dtd">
<!-- Created with matplotlib (http://matplotlib.org/) -->
<svg height="358pt" version="1.1" viewBox="0 0 521 358" width="521pt" xmlns="http://www.w3.org/2000/svg" xmlns:xlink="http://www.w3.org/1999/xlink">
 <defs>
  <style type="text/css">
*{stroke-linecap:butt;stroke-linejoin:round;}
  </style>
 </defs>
 <g id="figure_1">
  <g id="patch_1">
   <path d="M 0 358.56 
L 521.28 358.56 
L 521.28 0 
L 0 0 
z
" style="fill:none;"/>
  </g>
  <g id="axes_1">
   <g id="patch_2">
    <path d="M 108.362437 314.50775 
L 505.8045 314.50775 
L 505.8045 14.193 
L 108.362437 14.193 
z
" style="fill:#ffffff;"/>
   </g>
   <g id="matplotlib.axis_1">
    <g id="xtick_1">
     <g id="line2d_1">
      <path clip-path="url(#p5ee90c99e5)" d="M 158.44077 314.50775 
L 158.44077 14.193 
" style="fill:none;stroke:#cccccc;stroke-dasharray:2.96,1.28;stroke-dashoffset:0;stroke-width:0.8;"/>
     </g>
     <g id="line2d_2">
      <defs>
       <path d="M 0 0 
L 0 4 
" id="mb775f01baa" style="stroke:#262626;stroke-width:0.8;"/>
      </defs>
      <g>
       <use style="fill:#262626;stroke:#262626;stroke-width:0.8;" x="158.44077" xlink:href="#mb775f01baa" y="314.50775"/>
      </g>
     </g>
     <g id="text_1">
      <!-- 100 -->
      <defs>
       <path d="M 37.25 0 
L 28.46875 0 
L 28.46875 56 
Q 25.296875 52.984375 20.140625 49.953125 
Q 14.984375 46.921875 10.890625 45.40625 
L 10.890625 53.90625 
Q 18.265625 57.375 23.78125 62.296875 
Q 29.296875 67.234375 31.59375 71.875 
L 37.25 71.875 
z
" id="ArialMT-31"/>
       <path d="M 4.15625 35.296875 
Q 4.15625 48 6.765625 55.734375 
Q 9.375 63.484375 14.515625 67.671875 
Q 19.671875 71.875 27.484375 71.875 
Q 33.25 71.875 37.59375 69.546875 
Q 41.9375 67.234375 44.765625 62.859375 
Q 47.609375 58.5 49.21875 52.21875 
Q 50.828125 45.953125 50.828125 35.296875 
Q 50.828125 22.703125 48.234375 14.96875 
Q 45.65625 7.234375 40.5 3 
Q 35.359375 -1.21875 27.484375 -1.21875 
Q 17.140625 -1.21875 11.234375 6.203125 
Q 4.15625 15.140625 4.15625 35.296875 
z
M 13.1875 35.296875 
Q 13.1875 17.671875 17.3125 11.828125 
Q 21.4375 6 27.484375 6 
Q 33.546875 6 37.671875 11.859375 
Q 41.796875 17.71875 41.796875 35.296875 
Q 41.796875 52.984375 37.671875 58.78125 
Q 33.546875 64.59375 27.390625 64.59375 
Q 21.34375 64.59375 17.71875 59.46875 
Q 13.1875 52.9375 13.1875 35.296875 
z
" id="ArialMT-30"/>
      </defs>
      <g style="fill:#262626;" transform="translate(150.099364 329.165563)scale(0.1 -0.1)">
       <use xlink:href="#ArialMT-31"/>
       <use x="55.615234" xlink:href="#ArialMT-30"/>
       <use x="111.230469" xlink:href="#ArialMT-30"/>
      </g>
     </g>
    </g>
    <g id="xtick_2">
     <g id="line2d_3">
      <path clip-path="url(#p5ee90c99e5)" d="M 216.636874 314.50775 
L 216.636874 14.193 
" style="fill:none;stroke:#cccccc;stroke-dasharray:2.96,1.28;stroke-dashoffset:0;stroke-width:0.8;"/>
     </g>
     <g id="line2d_4">
      <g>
       <use style="fill:#262626;stroke:#262626;stroke-width:0.8;" x="216.636874" xlink:href="#mb775f01baa" y="314.50775"/>
      </g>
     </g>
     <g id="text_2">
      <!-- 200 -->
      <defs>
       <path d="M 50.34375 8.453125 
L 50.34375 0 
L 3.03125 0 
Q 2.9375 3.171875 4.046875 6.109375 
Q 5.859375 10.9375 9.828125 15.625 
Q 13.8125 20.3125 21.34375 26.46875 
Q 33.015625 36.03125 37.109375 41.625 
Q 41.21875 47.21875 41.21875 52.203125 
Q 41.21875 57.421875 37.46875 61 
Q 33.734375 64.59375 27.734375 64.59375 
Q 21.390625 64.59375 17.578125 60.78125 
Q 13.765625 56.984375 13.71875 50.25 
L 4.6875 51.171875 
Q 5.609375 61.28125 11.65625 66.578125 
Q 17.71875 71.875 27.9375 71.875 
Q 38.234375 71.875 44.234375 66.15625 
Q 50.25 60.453125 50.25 52 
Q 50.25 47.703125 48.484375 43.546875 
Q 46.734375 39.40625 42.65625 34.8125 
Q 38.578125 30.21875 29.109375 22.21875 
Q 21.1875 15.578125 18.9375 13.203125 
Q 16.703125 10.84375 15.234375 8.453125 
z
" id="ArialMT-32"/>
      </defs>
      <g style="fill:#262626;" transform="translate(208.295468 329.165563)scale(0.1 -0.1)">
       <use xlink:href="#ArialMT-32"/>
       <use x="55.615234" xlink:href="#ArialMT-30"/>
       <use x="111.230469" xlink:href="#ArialMT-30"/>
      </g>
     </g>
    </g>
    <g id="xtick_3">
     <g id="line2d_5">
      <path clip-path="url(#p5ee90c99e5)" d="M 274.832978 314.50775 
L 274.832978 14.193 
" style="fill:none;stroke:#cccccc;stroke-dasharray:2.96,1.28;stroke-dashoffset:0;stroke-width:0.8;"/>
     </g>
     <g id="line2d_6">
      <g>
       <use style="fill:#262626;stroke:#262626;stroke-width:0.8;" x="274.832978" xlink:href="#mb775f01baa" y="314.50775"/>
      </g>
     </g>
     <g id="text_3">
      <!-- 300 -->
      <defs>
       <path d="M 4.203125 18.890625 
L 12.984375 20.0625 
Q 14.5 12.59375 18.140625 9.296875 
Q 21.78125 6 27 6 
Q 33.203125 6 37.46875 10.296875 
Q 41.75 14.59375 41.75 20.953125 
Q 41.75 27 37.796875 30.921875 
Q 33.84375 34.859375 27.734375 34.859375 
Q 25.25 34.859375 21.53125 33.890625 
L 22.515625 41.609375 
Q 23.390625 41.5 23.921875 41.5 
Q 29.546875 41.5 34.03125 44.421875 
Q 38.53125 47.359375 38.53125 53.46875 
Q 38.53125 58.296875 35.25 61.46875 
Q 31.984375 64.65625 26.8125 64.65625 
Q 21.6875 64.65625 18.265625 61.421875 
Q 14.84375 58.203125 13.875 51.765625 
L 5.078125 53.328125 
Q 6.6875 62.15625 12.390625 67.015625 
Q 18.109375 71.875 26.609375 71.875 
Q 32.46875 71.875 37.390625 69.359375 
Q 42.328125 66.84375 44.9375 62.5 
Q 47.5625 58.15625 47.5625 53.265625 
Q 47.5625 48.640625 45.0625 44.828125 
Q 42.578125 41.015625 37.703125 38.765625 
Q 44.046875 37.3125 47.5625 32.6875 
Q 51.078125 28.078125 51.078125 21.140625 
Q 51.078125 11.765625 44.234375 5.25 
Q 37.40625 -1.265625 26.953125 -1.265625 
Q 17.53125 -1.265625 11.296875 4.34375 
Q 5.078125 9.96875 4.203125 18.890625 
z
" id="ArialMT-33"/>
      </defs>
      <g style="fill:#262626;" transform="translate(266.491572 329.165563)scale(0.1 -0.1)">
       <use xlink:href="#ArialMT-33"/>
       <use x="55.615234" xlink:href="#ArialMT-30"/>
       <use x="111.230469" xlink:href="#ArialMT-30"/>
      </g>
     </g>
    </g>
    <g id="xtick_4">
     <g id="line2d_7">
      <path clip-path="url(#p5ee90c99e5)" d="M 333.029082 314.50775 
L 333.029082 14.193 
" style="fill:none;stroke:#cccccc;stroke-dasharray:2.96,1.28;stroke-dashoffset:0;stroke-width:0.8;"/>
     </g>
     <g id="line2d_8">
      <g>
       <use style="fill:#262626;stroke:#262626;stroke-width:0.8;" x="333.029082" xlink:href="#mb775f01baa" y="314.50775"/>
      </g>
     </g>
     <g id="text_4">
      <!-- 400 -->
      <defs>
       <path d="M 32.328125 0 
L 32.328125 17.140625 
L 1.265625 17.140625 
L 1.265625 25.203125 
L 33.9375 71.578125 
L 41.109375 71.578125 
L 41.109375 25.203125 
L 50.78125 25.203125 
L 50.78125 17.140625 
L 41.109375 17.140625 
L 41.109375 0 
z
M 32.328125 25.203125 
L 32.328125 57.46875 
L 9.90625 25.203125 
z
" id="ArialMT-34"/>
      </defs>
      <g style="fill:#262626;" transform="translate(324.687676 329.165563)scale(0.1 -0.1)">
       <use xlink:href="#ArialMT-34"/>
       <use x="55.615234" xlink:href="#ArialMT-30"/>
       <use x="111.230469" xlink:href="#ArialMT-30"/>
      </g>
     </g>
    </g>
    <g id="xtick_5">
     <g id="line2d_9">
      <path clip-path="url(#p5ee90c99e5)" d="M 391.225186 314.50775 
L 391.225186 14.193 
" style="fill:none;stroke:#cccccc;stroke-dasharray:2.96,1.28;stroke-dashoffset:0;stroke-width:0.8;"/>
     </g>
     <g id="line2d_10">
      <g>
       <use style="fill:#262626;stroke:#262626;stroke-width:0.8;" x="391.225186" xlink:href="#mb775f01baa" y="314.50775"/>
      </g>
     </g>
     <g id="text_5">
      <!-- 500 -->
      <defs>
       <path d="M 4.15625 18.75 
L 13.375 19.53125 
Q 14.40625 12.796875 18.140625 9.390625 
Q 21.875 6 27.15625 6 
Q 33.5 6 37.890625 10.78125 
Q 42.28125 15.578125 42.28125 23.484375 
Q 42.28125 31 38.0625 35.34375 
Q 33.84375 39.703125 27 39.703125 
Q 22.75 39.703125 19.328125 37.765625 
Q 15.921875 35.84375 13.96875 32.765625 
L 5.71875 33.84375 
L 12.640625 70.609375 
L 48.25 70.609375 
L 48.25 62.203125 
L 19.671875 62.203125 
L 15.828125 42.96875 
Q 22.265625 47.46875 29.34375 47.46875 
Q 38.71875 47.46875 45.15625 40.96875 
Q 51.609375 34.46875 51.609375 24.265625 
Q 51.609375 14.546875 45.953125 7.46875 
Q 39.0625 -1.21875 27.15625 -1.21875 
Q 17.390625 -1.21875 11.203125 4.25 
Q 5.03125 9.71875 4.15625 18.75 
z
" id="ArialMT-35"/>
      </defs>
      <g style="fill:#262626;" transform="translate(382.88378 329.165563)scale(0.1 -0.1)">
       <use xlink:href="#ArialMT-35"/>
       <use x="55.615234" xlink:href="#ArialMT-30"/>
       <use x="111.230469" xlink:href="#ArialMT-30"/>
      </g>
     </g>
    </g>
    <g id="xtick_6">
     <g id="line2d_11">
      <path clip-path="url(#p5ee90c99e5)" d="M 449.42129 314.50775 
L 449.42129 14.193 
" style="fill:none;stroke:#cccccc;stroke-dasharray:2.96,1.28;stroke-dashoffset:0;stroke-width:0.8;"/>
     </g>
     <g id="line2d_12">
      <g>
       <use style="fill:#262626;stroke:#262626;stroke-width:0.8;" x="449.42129" xlink:href="#mb775f01baa" y="314.50775"/>
      </g>
     </g>
     <g id="text_6">
      <!-- 600 -->
      <defs>
       <path d="M 49.75 54.046875 
L 41.015625 53.375 
Q 39.84375 58.546875 37.703125 60.890625 
Q 34.125 64.65625 28.90625 64.65625 
Q 24.703125 64.65625 21.53125 62.3125 
Q 17.390625 59.28125 14.984375 53.46875 
Q 12.59375 47.65625 12.5 36.921875 
Q 15.671875 41.75 20.265625 44.09375 
Q 24.859375 46.4375 29.890625 46.4375 
Q 38.671875 46.4375 44.84375 39.96875 
Q 51.03125 33.5 51.03125 23.25 
Q 51.03125 16.5 48.125 10.71875 
Q 45.21875 4.9375 40.140625 1.859375 
Q 35.0625 -1.21875 28.609375 -1.21875 
Q 17.625 -1.21875 10.6875 6.859375 
Q 3.765625 14.9375 3.765625 33.5 
Q 3.765625 54.25 11.421875 63.671875 
Q 18.109375 71.875 29.4375 71.875 
Q 37.890625 71.875 43.28125 67.140625 
Q 48.6875 62.40625 49.75 54.046875 
z
M 13.875 23.1875 
Q 13.875 18.65625 15.796875 14.5 
Q 17.71875 10.359375 21.1875 8.171875 
Q 24.65625 6 28.46875 6 
Q 34.03125 6 38.03125 10.484375 
Q 42.046875 14.984375 42.046875 22.703125 
Q 42.046875 30.125 38.078125 34.390625 
Q 34.125 38.671875 28.125 38.671875 
Q 22.171875 38.671875 18.015625 34.390625 
Q 13.875 30.125 13.875 23.1875 
z
" id="ArialMT-36"/>
      </defs>
      <g style="fill:#262626;" transform="translate(441.079884 329.165563)scale(0.1 -0.1)">
       <use xlink:href="#ArialMT-36"/>
       <use x="55.615234" xlink:href="#ArialMT-30"/>
       <use x="111.230469" xlink:href="#ArialMT-30"/>
      </g>
     </g>
    </g>
    <g id="xtick_7">
     <g id="line2d_13">
      <path clip-path="url(#p5ee90c99e5)" d="M 111.883887 314.50775 
L 111.883887 14.193 
" style="fill:none;opacity:0.2;stroke:#000000;stroke-dasharray:1.85,0.8;stroke-dashoffset:0;stroke-width:0.5;"/>
     </g>
     <g id="line2d_14"/>
    </g>
    <g id="xtick_8">
     <g id="line2d_15">
      <path clip-path="url(#p5ee90c99e5)" d="M 123.523108 314.50775 
L 123.523108 14.193 
" style="fill:none;opacity:0.2;stroke:#000000;stroke-dasharray:1.85,0.8;stroke-dashoffset:0;stroke-width:0.5;"/>
     </g>
     <g id="line2d_16"/>
    </g>
    <g id="xtick_9">
     <g id="line2d_17">
      <path clip-path="url(#p5ee90c99e5)" d="M 135.162329 314.50775 
L 135.162329 14.193 
" style="fill:none;opacity:0.2;stroke:#000000;stroke-dasharray:1.85,0.8;stroke-dashoffset:0;stroke-width:0.5;"/>
     </g>
     <g id="line2d_18"/>
    </g>
    <g id="xtick_10">
     <g id="line2d_19">
      <path clip-path="url(#p5ee90c99e5)" d="M 146.80155 314.50775 
L 146.80155 14.193 
" style="fill:none;opacity:0.2;stroke:#000000;stroke-dasharray:1.85,0.8;stroke-dashoffset:0;stroke-width:0.5;"/>
     </g>
     <g id="line2d_20"/>
    </g>
    <g id="xtick_11">
     <g id="line2d_21">
      <path clip-path="url(#p5ee90c99e5)" d="M 170.079991 314.50775 
L 170.079991 14.193 
" style="fill:none;opacity:0.2;stroke:#000000;stroke-dasharray:1.85,0.8;stroke-dashoffset:0;stroke-width:0.5;"/>
     </g>
     <g id="line2d_22"/>
    </g>
    <g id="xtick_12">
     <g id="line2d_23">
      <path clip-path="url(#p5ee90c99e5)" d="M 181.719212 314.50775 
L 181.719212 14.193 
" style="fill:none;opacity:0.2;stroke:#000000;stroke-dasharray:1.85,0.8;stroke-dashoffset:0;stroke-width:0.5;"/>
     </g>
     <g id="line2d_24"/>
    </g>
    <g id="xtick_13">
     <g id="line2d_25">
      <path clip-path="url(#p5ee90c99e5)" d="M 193.358433 314.50775 
L 193.358433 14.193 
" style="fill:none;opacity:0.2;stroke:#000000;stroke-dasharray:1.85,0.8;stroke-dashoffset:0;stroke-width:0.5;"/>
     </g>
     <g id="line2d_26"/>
    </g>
    <g id="xtick_14">
     <g id="line2d_27">
      <path clip-path="url(#p5ee90c99e5)" d="M 204.997654 314.50775 
L 204.997654 14.193 
" style="fill:none;opacity:0.2;stroke:#000000;stroke-dasharray:1.85,0.8;stroke-dashoffset:0;stroke-width:0.5;"/>
     </g>
     <g id="line2d_28"/>
    </g>
    <g id="xtick_15">
     <g id="line2d_29">
      <path clip-path="url(#p5ee90c99e5)" d="M 228.276095 314.50775 
L 228.276095 14.193 
" style="fill:none;opacity:0.2;stroke:#000000;stroke-dasharray:1.85,0.8;stroke-dashoffset:0;stroke-width:0.5;"/>
     </g>
     <g id="line2d_30"/>
    </g>
    <g id="xtick_16">
     <g id="line2d_31">
      <path clip-path="url(#p5ee90c99e5)" d="M 239.915316 314.50775 
L 239.915316 14.193 
" style="fill:none;opacity:0.2;stroke:#000000;stroke-dasharray:1.85,0.8;stroke-dashoffset:0;stroke-width:0.5;"/>
     </g>
     <g id="line2d_32"/>
    </g>
    <g id="xtick_17">
     <g id="line2d_33">
      <path clip-path="url(#p5ee90c99e5)" d="M 251.554537 314.50775 
L 251.554537 14.193 
" style="fill:none;opacity:0.2;stroke:#000000;stroke-dasharray:1.85,0.8;stroke-dashoffset:0;stroke-width:0.5;"/>
     </g>
     <g id="line2d_34"/>
    </g>
    <g id="xtick_18">
     <g id="line2d_35">
      <path clip-path="url(#p5ee90c99e5)" d="M 263.193758 314.50775 
L 263.193758 14.193 
" style="fill:none;opacity:0.2;stroke:#000000;stroke-dasharray:1.85,0.8;stroke-dashoffset:0;stroke-width:0.5;"/>
     </g>
     <g id="line2d_36"/>
    </g>
    <g id="xtick_19">
     <g id="line2d_37">
      <path clip-path="url(#p5ee90c99e5)" d="M 286.472199 314.50775 
L 286.472199 14.193 
" style="fill:none;opacity:0.2;stroke:#000000;stroke-dasharray:1.85,0.8;stroke-dashoffset:0;stroke-width:0.5;"/>
     </g>
     <g id="line2d_38"/>
    </g>
    <g id="xtick_20">
     <g id="line2d_39">
      <path clip-path="url(#p5ee90c99e5)" d="M 298.11142 314.50775 
L 298.11142 14.193 
" style="fill:none;opacity:0.2;stroke:#000000;stroke-dasharray:1.85,0.8;stroke-dashoffset:0;stroke-width:0.5;"/>
     </g>
     <g id="line2d_40"/>
    </g>
    <g id="xtick_21">
     <g id="line2d_41">
      <path clip-path="url(#p5ee90c99e5)" d="M 309.750641 314.50775 
L 309.750641 14.193 
" style="fill:none;opacity:0.2;stroke:#000000;stroke-dasharray:1.85,0.8;stroke-dashoffset:0;stroke-width:0.5;"/>
     </g>
     <g id="line2d_42"/>
    </g>
    <g id="xtick_22">
     <g id="line2d_43">
      <path clip-path="url(#p5ee90c99e5)" d="M 321.389862 314.50775 
L 321.389862 14.193 
" style="fill:none;opacity:0.2;stroke:#000000;stroke-dasharray:1.85,0.8;stroke-dashoffset:0;stroke-width:0.5;"/>
     </g>
     <g id="line2d_44"/>
    </g>
    <g id="xtick_23">
     <g id="line2d_45">
      <path clip-path="url(#p5ee90c99e5)" d="M 344.668303 314.50775 
L 344.668303 14.193 
" style="fill:none;opacity:0.2;stroke:#000000;stroke-dasharray:1.85,0.8;stroke-dashoffset:0;stroke-width:0.5;"/>
     </g>
     <g id="line2d_46"/>
    </g>
    <g id="xtick_24">
     <g id="line2d_47">
      <path clip-path="url(#p5ee90c99e5)" d="M 356.307524 314.50775 
L 356.307524 14.193 
" style="fill:none;opacity:0.2;stroke:#000000;stroke-dasharray:1.85,0.8;stroke-dashoffset:0;stroke-width:0.5;"/>
     </g>
     <g id="line2d_48"/>
    </g>
    <g id="xtick_25">
     <g id="line2d_49">
      <path clip-path="url(#p5ee90c99e5)" d="M 367.946745 314.50775 
L 367.946745 14.193 
" style="fill:none;opacity:0.2;stroke:#000000;stroke-dasharray:1.85,0.8;stroke-dashoffset:0;stroke-width:0.5;"/>
     </g>
     <g id="line2d_50"/>
    </g>
    <g id="xtick_26">
     <g id="line2d_51">
      <path clip-path="url(#p5ee90c99e5)" d="M 379.585966 314.50775 
L 379.585966 14.193 
" style="fill:none;opacity:0.2;stroke:#000000;stroke-dasharray:1.85,0.8;stroke-dashoffset:0;stroke-width:0.5;"/>
     </g>
     <g id="line2d_52"/>
    </g>
    <g id="xtick_27">
     <g id="line2d_53">
      <path clip-path="url(#p5ee90c99e5)" d="M 402.864407 314.50775 
L 402.864407 14.193 
" style="fill:none;opacity:0.2;stroke:#000000;stroke-dasharray:1.85,0.8;stroke-dashoffset:0;stroke-width:0.5;"/>
     </g>
     <g id="line2d_54"/>
    </g>
    <g id="xtick_28">
     <g id="line2d_55">
      <path clip-path="url(#p5ee90c99e5)" d="M 414.503628 314.50775 
L 414.503628 14.193 
" style="fill:none;opacity:0.2;stroke:#000000;stroke-dasharray:1.85,0.8;stroke-dashoffset:0;stroke-width:0.5;"/>
     </g>
     <g id="line2d_56"/>
    </g>
    <g id="xtick_29">
     <g id="line2d_57">
      <path clip-path="url(#p5ee90c99e5)" d="M 426.142849 314.50775 
L 426.142849 14.193 
" style="fill:none;opacity:0.2;stroke:#000000;stroke-dasharray:1.85,0.8;stroke-dashoffset:0;stroke-width:0.5;"/>
     </g>
     <g id="line2d_58"/>
    </g>
    <g id="xtick_30">
     <g id="line2d_59">
      <path clip-path="url(#p5ee90c99e5)" d="M 437.782069 314.50775 
L 437.782069 14.193 
" style="fill:none;opacity:0.2;stroke:#000000;stroke-dasharray:1.85,0.8;stroke-dashoffset:0;stroke-width:0.5;"/>
     </g>
     <g id="line2d_60"/>
    </g>
    <g id="xtick_31">
     <g id="line2d_61">
      <path clip-path="url(#p5ee90c99e5)" d="M 461.060511 314.50775 
L 461.060511 14.193 
" style="fill:none;opacity:0.2;stroke:#000000;stroke-dasharray:1.85,0.8;stroke-dashoffset:0;stroke-width:0.5;"/>
     </g>
     <g id="line2d_62"/>
    </g>
    <g id="xtick_32">
     <g id="line2d_63">
      <path clip-path="url(#p5ee90c99e5)" d="M 472.699732 314.50775 
L 472.699732 14.193 
" style="fill:none;opacity:0.2;stroke:#000000;stroke-dasharray:1.85,0.8;stroke-dashoffset:0;stroke-width:0.5;"/>
     </g>
     <g id="line2d_64"/>
    </g>
    <g id="xtick_33">
     <g id="line2d_65">
      <path clip-path="url(#p5ee90c99e5)" d="M 484.338953 314.50775 
L 484.338953 14.193 
" style="fill:none;opacity:0.2;stroke:#000000;stroke-dasharray:1.85,0.8;stroke-dashoffset:0;stroke-width:0.5;"/>
     </g>
     <g id="line2d_66"/>
    </g>
    <g id="xtick_34">
     <g id="line2d_67">
      <path clip-path="url(#p5ee90c99e5)" d="M 495.978173 314.50775 
L 495.978173 14.193 
" style="fill:none;opacity:0.2;stroke:#000000;stroke-dasharray:1.85,0.8;stroke-dashoffset:0;stroke-width:0.5;"/>
     </g>
     <g id="line2d_68"/>
    </g>
    <g id="text_7">
     <!-- jps -->
     <defs>
      <path d="M 6.546875 61.375 
L 6.546875 71.578125 
L 15.328125 71.578125 
L 15.328125 61.375 
z
M -4.59375 -20.125 
L -2.9375 -12.640625 
Q -0.296875 -13.328125 1.21875 -13.328125 
Q 3.90625 -13.328125 5.21875 -11.546875 
Q 6.546875 -9.765625 6.546875 -2.640625 
L 6.546875 51.859375 
L 15.328125 51.859375 
L 15.328125 -2.828125 
Q 15.328125 -12.40625 12.84375 -16.15625 
Q 9.671875 -21.046875 2.296875 -21.046875 
Q -1.265625 -21.046875 -4.59375 -20.125 
z
" id="ArialMT-6a"/>
      <path d="M 6.59375 -19.875 
L 6.59375 51.859375 
L 14.59375 51.859375 
L 14.59375 45.125 
Q 17.4375 49.078125 21 51.046875 
Q 24.5625 53.03125 29.640625 53.03125 
Q 36.28125 53.03125 41.359375 49.609375 
Q 46.4375 46.1875 49.015625 39.953125 
Q 51.609375 33.734375 51.609375 26.3125 
Q 51.609375 18.359375 48.75 11.984375 
Q 45.90625 5.609375 40.453125 2.21875 
Q 35.015625 -1.171875 29 -1.171875 
Q 24.609375 -1.171875 21.109375 0.6875 
Q 17.625 2.546875 15.375 5.375 
L 15.375 -19.875 
z
M 14.546875 25.640625 
Q 14.546875 15.625 18.59375 10.84375 
Q 22.65625 6.0625 28.421875 6.0625 
Q 34.28125 6.0625 38.453125 11.015625 
Q 42.625 15.96875 42.625 26.375 
Q 42.625 36.28125 38.546875 41.203125 
Q 34.46875 46.140625 28.8125 46.140625 
Q 23.1875 46.140625 18.859375 40.890625 
Q 14.546875 35.640625 14.546875 25.640625 
z
" id="ArialMT-70"/>
      <path d="M 3.078125 15.484375 
L 11.765625 16.84375 
Q 12.5 11.625 15.84375 8.84375 
Q 19.1875 6.0625 25.203125 6.0625 
Q 31.25 6.0625 34.171875 8.515625 
Q 37.109375 10.984375 37.109375 14.3125 
Q 37.109375 17.28125 34.515625 19 
Q 32.71875 20.171875 25.53125 21.96875 
Q 15.875 24.421875 12.140625 26.203125 
Q 8.40625 27.984375 6.46875 31.125 
Q 4.546875 34.28125 4.546875 38.09375 
Q 4.546875 41.546875 6.125 44.5 
Q 7.71875 47.46875 10.453125 49.421875 
Q 12.5 50.921875 16.03125 51.96875 
Q 19.578125 53.03125 23.640625 53.03125 
Q 29.734375 53.03125 34.34375 51.265625 
Q 38.96875 49.515625 41.15625 46.5 
Q 43.359375 43.5 44.1875 38.484375 
L 35.59375 37.3125 
Q 35.015625 41.3125 32.203125 43.546875 
Q 29.390625 45.796875 24.265625 45.796875 
Q 18.21875 45.796875 15.625 43.796875 
Q 13.03125 41.796875 13.03125 39.109375 
Q 13.03125 37.40625 14.109375 36.03125 
Q 15.1875 34.625 17.484375 33.6875 
Q 18.796875 33.203125 25.25 31.453125 
Q 34.578125 28.953125 38.25 27.359375 
Q 41.9375 25.78125 44.03125 22.75 
Q 46.140625 19.734375 46.140625 15.234375 
Q 46.140625 10.84375 43.578125 6.953125 
Q 41.015625 3.078125 36.171875 0.953125 
Q 31.34375 -1.171875 25.25 -1.171875 
Q 15.140625 -1.171875 9.84375 3.03125 
Q 4.546875 7.234375 3.078125 15.484375 
z
" id="ArialMT-73"/>
     </defs>
     <g style="fill:#262626;" transform="translate(300.692062 342.310875)scale(0.1 -0.1)">
      <use xlink:href="#ArialMT-6a"/>
      <use x="22.216797" xlink:href="#ArialMT-70"/>
      <use x="77.832031" xlink:href="#ArialMT-73"/>
     </g>
    </g>
   </g>
   <g id="matplotlib.axis_2">
    <g id="ytick_1">
     <g id="line2d_69">
      <defs>
       <path d="M 0 0 
L -4 0 
" id="m8d0878c6dd" style="stroke:#262626;stroke-width:0.8;"/>
      </defs>
      <g>
       <use style="fill:#262626;stroke:#262626;stroke-width:0.8;" x="108.362437" xlink:href="#m8d0878c6dd" y="29.208737"/>
      </g>
     </g>
     <g id="text_8">
      <!-- DBP-mysql-0-0-5 -->
      <defs>
       <path d="M 7.71875 0 
L 7.71875 71.578125 
L 32.375 71.578125 
Q 40.71875 71.578125 45.125 70.5625 
Q 51.265625 69.140625 55.609375 65.4375 
Q 61.28125 60.640625 64.078125 53.1875 
Q 66.890625 45.75 66.890625 36.1875 
Q 66.890625 28.03125 64.984375 21.734375 
Q 63.09375 15.4375 60.109375 11.296875 
Q 57.125 7.171875 53.578125 4.796875 
Q 50.046875 2.4375 45.046875 1.21875 
Q 40.046875 0 33.546875 0 
z
M 17.1875 8.453125 
L 32.46875 8.453125 
Q 39.546875 8.453125 43.578125 9.765625 
Q 47.609375 11.078125 50 13.484375 
Q 53.375 16.84375 55.25 22.53125 
Q 57.125 28.21875 57.125 36.328125 
Q 57.125 47.5625 53.4375 53.59375 
Q 49.75 59.625 44.484375 61.671875 
Q 40.671875 63.140625 32.234375 63.140625 
L 17.1875 63.140625 
z
" id="ArialMT-44"/>
       <path d="M 7.328125 0 
L 7.328125 71.578125 
L 34.1875 71.578125 
Q 42.390625 71.578125 47.34375 69.40625 
Q 52.296875 67.234375 55.09375 62.71875 
Q 57.90625 58.203125 57.90625 53.265625 
Q 57.90625 48.6875 55.421875 44.625 
Q 52.9375 40.578125 47.90625 38.09375 
Q 54.390625 36.1875 57.875 31.59375 
Q 61.375 27 61.375 20.75 
Q 61.375 15.71875 59.25 11.390625 
Q 57.125 7.078125 54 4.734375 
Q 50.875 2.390625 46.15625 1.1875 
Q 41.453125 0 34.625 0 
z
M 16.796875 41.5 
L 32.28125 41.5 
Q 38.578125 41.5 41.3125 42.328125 
Q 44.921875 43.40625 46.75 45.890625 
Q 48.578125 48.390625 48.578125 52.15625 
Q 48.578125 55.71875 46.875 58.421875 
Q 45.171875 61.140625 41.984375 62.140625 
Q 38.8125 63.140625 31.109375 63.140625 
L 16.796875 63.140625 
z
M 16.796875 8.453125 
L 34.625 8.453125 
Q 39.203125 8.453125 41.0625 8.796875 
Q 44.34375 9.375 46.53125 10.734375 
Q 48.734375 12.109375 50.140625 14.71875 
Q 51.5625 17.328125 51.5625 20.75 
Q 51.5625 24.75 49.515625 27.703125 
Q 47.46875 30.671875 43.828125 31.859375 
Q 40.1875 33.0625 33.34375 33.0625 
L 16.796875 33.0625 
z
" id="ArialMT-42"/>
       <path d="M 7.71875 0 
L 7.71875 71.578125 
L 34.71875 71.578125 
Q 41.84375 71.578125 45.609375 70.90625 
Q 50.875 70.015625 54.4375 67.546875 
Q 58.015625 65.09375 60.1875 60.640625 
Q 62.359375 56.203125 62.359375 50.875 
Q 62.359375 41.75 56.546875 35.421875 
Q 50.734375 29.109375 35.546875 29.109375 
L 17.1875 29.109375 
L 17.1875 0 
z
M 17.1875 37.546875 
L 35.6875 37.546875 
Q 44.875 37.546875 48.734375 40.96875 
Q 52.59375 44.390625 52.59375 50.59375 
Q 52.59375 55.078125 50.3125 58.265625 
Q 48.046875 61.46875 44.34375 62.5 
Q 41.9375 63.140625 35.5 63.140625 
L 17.1875 63.140625 
z
" id="ArialMT-50"/>
       <path d="M 3.171875 21.484375 
L 3.171875 30.328125 
L 30.171875 30.328125 
L 30.171875 21.484375 
z
" id="ArialMT-2d"/>
       <path d="M 6.59375 0 
L 6.59375 51.859375 
L 14.453125 51.859375 
L 14.453125 44.578125 
Q 16.890625 48.390625 20.9375 50.703125 
Q 25 53.03125 30.171875 53.03125 
Q 35.9375 53.03125 39.625 50.640625 
Q 43.3125 48.25 44.828125 43.953125 
Q 50.984375 53.03125 60.84375 53.03125 
Q 68.5625 53.03125 72.703125 48.75 
Q 76.859375 44.484375 76.859375 35.59375 
L 76.859375 0 
L 68.109375 0 
L 68.109375 32.671875 
Q 68.109375 37.9375 67.25 40.25 
Q 66.40625 42.578125 64.15625 43.984375 
Q 61.921875 45.40625 58.890625 45.40625 
Q 53.421875 45.40625 49.796875 41.765625 
Q 46.1875 38.140625 46.1875 30.125 
L 46.1875 0 
L 37.40625 0 
L 37.40625 33.6875 
Q 37.40625 39.546875 35.25 42.46875 
Q 33.109375 45.40625 28.21875 45.40625 
Q 24.515625 45.40625 21.359375 43.453125 
Q 18.21875 41.5 16.796875 37.734375 
Q 15.375 33.984375 15.375 26.90625 
L 15.375 0 
z
" id="ArialMT-6d"/>
       <path d="M 6.203125 -19.96875 
L 5.21875 -11.71875 
Q 8.109375 -12.5 10.25 -12.5 
Q 13.1875 -12.5 14.9375 -11.515625 
Q 16.703125 -10.546875 17.828125 -8.796875 
Q 18.65625 -7.46875 20.515625 -2.25 
Q 20.75 -1.515625 21.296875 -0.09375 
L 1.609375 51.859375 
L 11.078125 51.859375 
L 21.875 21.828125 
Q 23.96875 16.109375 25.640625 9.8125 
Q 27.15625 15.875 29.25 21.625 
L 40.328125 51.859375 
L 49.125 51.859375 
L 29.390625 -0.875 
Q 26.21875 -9.421875 24.46875 -12.640625 
Q 22.125 -17 19.09375 -19.015625 
Q 16.0625 -21.046875 11.859375 -21.046875 
Q 9.328125 -21.046875 6.203125 -19.96875 
z
" id="ArialMT-79"/>
       <path d="M 39.65625 -19.875 
L 39.65625 5.515625 
Q 37.59375 2.640625 33.90625 0.734375 
Q 30.21875 -1.171875 26.078125 -1.171875 
Q 16.84375 -1.171875 10.171875 6.203125 
Q 3.515625 13.578125 3.515625 26.421875 
Q 3.515625 34.234375 6.21875 40.421875 
Q 8.9375 46.625 14.078125 49.828125 
Q 19.234375 53.03125 25.390625 53.03125 
Q 35.015625 53.03125 40.53125 44.921875 
L 40.53125 51.859375 
L 48.4375 51.859375 
L 48.4375 -19.875 
z
M 12.546875 26.078125 
Q 12.546875 16.0625 16.75 11.0625 
Q 20.953125 6.0625 26.8125 6.0625 
Q 32.421875 6.0625 36.46875 10.8125 
Q 40.53125 15.578125 40.53125 25.296875 
Q 40.53125 35.640625 36.25 40.859375 
Q 31.984375 46.09375 26.21875 46.09375 
Q 20.515625 46.09375 16.53125 41.234375 
Q 12.546875 36.375 12.546875 26.078125 
z
" id="ArialMT-71"/>
       <path d="M 6.390625 0 
L 6.390625 71.578125 
L 15.1875 71.578125 
L 15.1875 0 
z
" id="ArialMT-6c"/>
      </defs>
      <g style="fill:#262626;" transform="translate(24.185875 32.802487)scale(0.1 -0.1)">
       <use xlink:href="#ArialMT-44"/>
       <use x="72.216797" xlink:href="#ArialMT-42"/>
       <use x="138.916016" xlink:href="#ArialMT-50"/>
       <use x="205.615234" xlink:href="#ArialMT-2d"/>
       <use x="238.916016" xlink:href="#ArialMT-6d"/>
       <use x="322.216797" xlink:href="#ArialMT-79"/>
       <use x="372.216797" xlink:href="#ArialMT-73"/>
       <use x="422.216797" xlink:href="#ArialMT-71"/>
       <use x="477.832031" xlink:href="#ArialMT-6c"/>
       <use x="500.048828" xlink:href="#ArialMT-2d"/>
       <use x="533.349609" xlink:href="#ArialMT-30"/>
       <use x="588.964844" xlink:href="#ArialMT-2d"/>
       <use x="622.265625" xlink:href="#ArialMT-30"/>
       <use x="677.880859" xlink:href="#ArialMT-2d"/>
       <use x="711.181641" xlink:href="#ArialMT-35"/>
      </g>
     </g>
    </g>
    <g id="ytick_2">
     <g id="line2d_70">
      <g>
       <use style="fill:#262626;stroke:#262626;stroke-width:0.8;" x="108.362437" xlink:href="#m8d0878c6dd" y="59.240212"/>
      </g>
     </g>
     <g id="text_9">
      <!-- DBP-mysql-1-0-1 -->
      <g style="fill:#262626;" transform="translate(24.185875 62.833962)scale(0.1 -0.1)">
       <use xlink:href="#ArialMT-44"/>
       <use x="72.216797" xlink:href="#ArialMT-42"/>
       <use x="138.916016" xlink:href="#ArialMT-50"/>
       <use x="205.615234" xlink:href="#ArialMT-2d"/>
       <use x="238.916016" xlink:href="#ArialMT-6d"/>
       <use x="322.216797" xlink:href="#ArialMT-79"/>
       <use x="372.216797" xlink:href="#ArialMT-73"/>
       <use x="422.216797" xlink:href="#ArialMT-71"/>
       <use x="477.832031" xlink:href="#ArialMT-6c"/>
       <use x="500.048828" xlink:href="#ArialMT-2d"/>
       <use x="533.349609" xlink:href="#ArialMT-31"/>
       <use x="588.964844" xlink:href="#ArialMT-2d"/>
       <use x="622.265625" xlink:href="#ArialMT-30"/>
       <use x="677.880859" xlink:href="#ArialMT-2d"/>
       <use x="711.181641" xlink:href="#ArialMT-31"/>
      </g>
     </g>
    </g>
    <g id="ytick_3">
     <g id="line2d_71">
      <g>
       <use style="fill:#262626;stroke:#262626;stroke-width:0.8;" x="108.362437" xlink:href="#m8d0878c6dd" y="89.271687"/>
      </g>
     </g>
     <g id="text_10">
      <!-- DBP-mysql-noidx -->
      <defs>
       <path d="M 6.59375 0 
L 6.59375 51.859375 
L 14.5 51.859375 
L 14.5 44.484375 
Q 20.21875 53.03125 31 53.03125 
Q 35.6875 53.03125 39.625 51.34375 
Q 43.5625 49.65625 45.515625 46.921875 
Q 47.46875 44.1875 48.25 40.4375 
Q 48.734375 37.984375 48.734375 31.890625 
L 48.734375 0 
L 39.9375 0 
L 39.9375 31.546875 
Q 39.9375 36.921875 38.90625 39.578125 
Q 37.890625 42.234375 35.28125 43.8125 
Q 32.671875 45.40625 29.15625 45.40625 
Q 23.53125 45.40625 19.453125 41.84375 
Q 15.375 38.28125 15.375 28.328125 
L 15.375 0 
z
" id="ArialMT-6e"/>
       <path d="M 3.328125 25.921875 
Q 3.328125 40.328125 11.328125 47.265625 
Q 18.015625 53.03125 27.640625 53.03125 
Q 38.328125 53.03125 45.109375 46.015625 
Q 51.90625 39.015625 51.90625 26.65625 
Q 51.90625 16.65625 48.90625 10.90625 
Q 45.90625 5.171875 40.15625 2 
Q 34.421875 -1.171875 27.640625 -1.171875 
Q 16.75 -1.171875 10.03125 5.8125 
Q 3.328125 12.796875 3.328125 25.921875 
z
M 12.359375 25.921875 
Q 12.359375 15.96875 16.703125 11.015625 
Q 21.046875 6.0625 27.640625 6.0625 
Q 34.1875 6.0625 38.53125 11.03125 
Q 42.875 16.015625 42.875 26.21875 
Q 42.875 35.84375 38.5 40.796875 
Q 34.125 45.75 27.640625 45.75 
Q 21.046875 45.75 16.703125 40.8125 
Q 12.359375 35.890625 12.359375 25.921875 
z
" id="ArialMT-6f"/>
       <path d="M 6.640625 61.46875 
L 6.640625 71.578125 
L 15.4375 71.578125 
L 15.4375 61.46875 
z
M 6.640625 0 
L 6.640625 51.859375 
L 15.4375 51.859375 
L 15.4375 0 
z
" id="ArialMT-69"/>
       <path d="M 40.234375 0 
L 40.234375 6.546875 
Q 35.296875 -1.171875 25.734375 -1.171875 
Q 19.53125 -1.171875 14.328125 2.25 
Q 9.125 5.671875 6.265625 11.796875 
Q 3.421875 17.921875 3.421875 25.875 
Q 3.421875 33.640625 6 39.96875 
Q 8.59375 46.296875 13.765625 49.65625 
Q 18.953125 53.03125 25.34375 53.03125 
Q 30.03125 53.03125 33.6875 51.046875 
Q 37.359375 49.078125 39.65625 45.90625 
L 39.65625 71.578125 
L 48.390625 71.578125 
L 48.390625 0 
z
M 12.453125 25.875 
Q 12.453125 15.921875 16.640625 10.984375 
Q 20.84375 6.0625 26.5625 6.0625 
Q 32.328125 6.0625 36.34375 10.765625 
Q 40.375 15.484375 40.375 25.140625 
Q 40.375 35.796875 36.265625 40.765625 
Q 32.171875 45.75 26.171875 45.75 
Q 20.3125 45.75 16.375 40.96875 
Q 12.453125 36.1875 12.453125 25.875 
z
" id="ArialMT-64"/>
       <path d="M 0.734375 0 
L 19.671875 26.953125 
L 2.15625 51.859375 
L 13.140625 51.859375 
L 21.09375 39.703125 
Q 23.34375 36.234375 24.703125 33.890625 
Q 26.859375 37.109375 28.65625 39.59375 
L 37.40625 51.859375 
L 47.90625 51.859375 
L 29.984375 27.4375 
L 49.265625 0 
L 38.484375 0 
L 27.828125 16.109375 
L 25 20.453125 
L 11.375 0 
z
" id="ArialMT-78"/>
      </defs>
      <g style="fill:#262626;" transform="translate(23.623375 92.850594)scale(0.1 -0.1)">
       <use xlink:href="#ArialMT-44"/>
       <use x="72.216797" xlink:href="#ArialMT-42"/>
       <use x="138.916016" xlink:href="#ArialMT-50"/>
       <use x="205.615234" xlink:href="#ArialMT-2d"/>
       <use x="238.916016" xlink:href="#ArialMT-6d"/>
       <use x="322.216797" xlink:href="#ArialMT-79"/>
       <use x="372.216797" xlink:href="#ArialMT-73"/>
       <use x="422.216797" xlink:href="#ArialMT-71"/>
       <use x="477.832031" xlink:href="#ArialMT-6c"/>
       <use x="500.048828" xlink:href="#ArialMT-2d"/>
       <use x="533.349609" xlink:href="#ArialMT-6e"/>
       <use x="588.964844" xlink:href="#ArialMT-6f"/>
       <use x="644.580078" xlink:href="#ArialMT-69"/>
       <use x="666.796875" xlink:href="#ArialMT-64"/>
       <use x="722.412109" xlink:href="#ArialMT-78"/>
      </g>
     </g>
    </g>
    <g id="ytick_4">
     <g id="line2d_72">
      <g>
       <use style="fill:#262626;stroke:#262626;stroke-width:0.8;" x="108.362437" xlink:href="#m8d0878c6dd" y="119.303163"/>
      </g>
     </g>
     <g id="text_11">
      <!-- DBO-mysql-0 -->
      <defs>
       <path d="M 4.828125 34.859375 
Q 4.828125 52.6875 14.390625 62.765625 
Q 23.96875 72.859375 39.109375 72.859375 
Q 49.03125 72.859375 56.984375 68.109375 
Q 64.9375 63.375 69.109375 54.90625 
Q 73.296875 46.4375 73.296875 35.6875 
Q 73.296875 24.8125 68.890625 16.21875 
Q 64.5 7.625 56.4375 3.203125 
Q 48.390625 -1.21875 39.0625 -1.21875 
Q 28.953125 -1.21875 20.984375 3.65625 
Q 13.03125 8.546875 8.921875 16.984375 
Q 4.828125 25.4375 4.828125 34.859375 
z
M 14.59375 34.71875 
Q 14.59375 21.78125 21.546875 14.328125 
Q 28.515625 6.890625 39.015625 6.890625 
Q 49.703125 6.890625 56.609375 14.40625 
Q 63.53125 21.921875 63.53125 35.75 
Q 63.53125 44.484375 60.578125 51 
Q 57.625 57.515625 51.921875 61.109375 
Q 46.234375 64.703125 39.15625 64.703125 
Q 29.109375 64.703125 21.84375 57.78125 
Q 14.59375 50.875 14.59375 34.71875 
z
" id="ArialMT-4f"/>
      </defs>
      <g style="fill:#262626;" transform="translate(40.859312 122.946131)scale(0.1 -0.1)">
       <use xlink:href="#ArialMT-44"/>
       <use x="72.216797" xlink:href="#ArialMT-42"/>
       <use x="138.916016" xlink:href="#ArialMT-4f"/>
       <use x="216.699219" xlink:href="#ArialMT-2d"/>
       <use x="250" xlink:href="#ArialMT-6d"/>
       <use x="333.300781" xlink:href="#ArialMT-79"/>
       <use x="383.300781" xlink:href="#ArialMT-73"/>
       <use x="433.300781" xlink:href="#ArialMT-71"/>
       <use x="488.916016" xlink:href="#ArialMT-6c"/>
       <use x="511.132812" xlink:href="#ArialMT-2d"/>
       <use x="544.433594" xlink:href="#ArialMT-30"/>
      </g>
     </g>
    </g>
    <g id="ytick_5">
     <g id="line2d_73">
      <g>
       <use style="fill:#262626;stroke:#262626;stroke-width:0.8;" x="108.362437" xlink:href="#m8d0878c6dd" y="149.334638"/>
      </g>
     </g>
     <g id="text_12">
      <!-- DBO-mysql-1 -->
      <g style="fill:#262626;" transform="translate(40.859312 152.977606)scale(0.1 -0.1)">
       <use xlink:href="#ArialMT-44"/>
       <use x="72.216797" xlink:href="#ArialMT-42"/>
       <use x="138.916016" xlink:href="#ArialMT-4f"/>
       <use x="216.699219" xlink:href="#ArialMT-2d"/>
       <use x="250" xlink:href="#ArialMT-6d"/>
       <use x="333.300781" xlink:href="#ArialMT-79"/>
       <use x="383.300781" xlink:href="#ArialMT-73"/>
       <use x="433.300781" xlink:href="#ArialMT-71"/>
       <use x="488.916016" xlink:href="#ArialMT-6c"/>
       <use x="511.132812" xlink:href="#ArialMT-2d"/>
       <use x="544.433594" xlink:href="#ArialMT-31"/>
      </g>
     </g>
    </g>
    <g id="ytick_6">
     <g id="line2d_74">
      <g>
       <use style="fill:#262626;stroke:#262626;stroke-width:0.8;" x="108.362437" xlink:href="#m8d0878c6dd" y="179.366113"/>
      </g>
     </g>
     <g id="text_13">
      <!-- DBP-pgsql-1-0-1 -->
      <defs>
       <path d="M 4.984375 -4.296875 
L 13.53125 -5.5625 
Q 14.0625 -9.515625 16.5 -11.328125 
Q 19.78125 -13.765625 25.4375 -13.765625 
Q 31.546875 -13.765625 34.859375 -11.328125 
Q 38.1875 -8.890625 39.359375 -4.5 
Q 40.046875 -1.8125 39.984375 6.78125 
Q 34.234375 0 25.640625 0 
Q 14.9375 0 9.078125 7.71875 
Q 3.21875 15.4375 3.21875 26.21875 
Q 3.21875 33.640625 5.90625 39.90625 
Q 8.59375 46.1875 13.6875 49.609375 
Q 18.796875 53.03125 25.6875 53.03125 
Q 34.859375 53.03125 40.828125 45.609375 
L 40.828125 51.859375 
L 48.921875 51.859375 
L 48.921875 7.03125 
Q 48.921875 -5.078125 46.453125 -10.125 
Q 44 -15.1875 38.640625 -18.109375 
Q 33.296875 -21.046875 25.484375 -21.046875 
Q 16.21875 -21.046875 10.5 -16.875 
Q 4.78125 -12.703125 4.984375 -4.296875 
z
M 12.25 26.859375 
Q 12.25 16.65625 16.296875 11.96875 
Q 20.359375 7.28125 26.46875 7.28125 
Q 32.515625 7.28125 36.609375 11.9375 
Q 40.71875 16.609375 40.71875 26.5625 
Q 40.71875 36.078125 36.5 40.90625 
Q 32.28125 45.75 26.3125 45.75 
Q 20.453125 45.75 16.34375 40.984375 
Q 12.25 36.234375 12.25 26.859375 
z
" id="ArialMT-67"/>
      </defs>
      <g style="fill:#262626;" transform="translate(26.393687 182.959863)scale(0.1 -0.1)">
       <use xlink:href="#ArialMT-44"/>
       <use x="72.216797" xlink:href="#ArialMT-42"/>
       <use x="138.916016" xlink:href="#ArialMT-50"/>
       <use x="205.615234" xlink:href="#ArialMT-2d"/>
       <use x="238.916016" xlink:href="#ArialMT-70"/>
       <use x="294.53125" xlink:href="#ArialMT-67"/>
       <use x="350.146484" xlink:href="#ArialMT-73"/>
       <use x="400.146484" xlink:href="#ArialMT-71"/>
       <use x="455.761719" xlink:href="#ArialMT-6c"/>
       <use x="477.978516" xlink:href="#ArialMT-2d"/>
       <use x="511.279297" xlink:href="#ArialMT-31"/>
       <use x="566.894531" xlink:href="#ArialMT-2d"/>
       <use x="600.195312" xlink:href="#ArialMT-30"/>
       <use x="655.810547" xlink:href="#ArialMT-2d"/>
       <use x="689.111328" xlink:href="#ArialMT-31"/>
      </g>
     </g>
    </g>
    <g id="ytick_7">
     <g id="line2d_75">
      <g>
       <use style="fill:#262626;stroke:#262626;stroke-width:0.8;" x="108.362437" xlink:href="#m8d0878c6dd" y="209.397588"/>
      </g>
     </g>
     <g id="text_14">
      <!-- DBP-pgsql-0-0-5 -->
      <g style="fill:#262626;" transform="translate(26.393687 212.991338)scale(0.1 -0.1)">
       <use xlink:href="#ArialMT-44"/>
       <use x="72.216797" xlink:href="#ArialMT-42"/>
       <use x="138.916016" xlink:href="#ArialMT-50"/>
       <use x="205.615234" xlink:href="#ArialMT-2d"/>
       <use x="238.916016" xlink:href="#ArialMT-70"/>
       <use x="294.53125" xlink:href="#ArialMT-67"/>
       <use x="350.146484" xlink:href="#ArialMT-73"/>
       <use x="400.146484" xlink:href="#ArialMT-71"/>
       <use x="455.761719" xlink:href="#ArialMT-6c"/>
       <use x="477.978516" xlink:href="#ArialMT-2d"/>
       <use x="511.279297" xlink:href="#ArialMT-30"/>
       <use x="566.894531" xlink:href="#ArialMT-2d"/>
       <use x="600.195312" xlink:href="#ArialMT-30"/>
       <use x="655.810547" xlink:href="#ArialMT-2d"/>
       <use x="689.111328" xlink:href="#ArialMT-35"/>
      </g>
     </g>
    </g>
    <g id="ytick_8">
     <g id="line2d_76">
      <g>
       <use style="fill:#262626;stroke:#262626;stroke-width:0.8;" x="108.362437" xlink:href="#m8d0878c6dd" y="239.429063"/>
      </g>
     </g>
     <g id="text_15">
      <!-- DBP-pgsql-noidx -->
      <g style="fill:#262626;" transform="translate(25.831187 243.007969)scale(0.1 -0.1)">
       <use xlink:href="#ArialMT-44"/>
       <use x="72.216797" xlink:href="#ArialMT-42"/>
       <use x="138.916016" xlink:href="#ArialMT-50"/>
       <use x="205.615234" xlink:href="#ArialMT-2d"/>
       <use x="238.916016" xlink:href="#ArialMT-70"/>
       <use x="294.53125" xlink:href="#ArialMT-67"/>
       <use x="350.146484" xlink:href="#ArialMT-73"/>
       <use x="400.146484" xlink:href="#ArialMT-71"/>
       <use x="455.761719" xlink:href="#ArialMT-6c"/>
       <use x="477.978516" xlink:href="#ArialMT-2d"/>
       <use x="511.279297" xlink:href="#ArialMT-6e"/>
       <use x="566.894531" xlink:href="#ArialMT-6f"/>
       <use x="622.509766" xlink:href="#ArialMT-69"/>
       <use x="644.726562" xlink:href="#ArialMT-64"/>
       <use x="700.341797" xlink:href="#ArialMT-78"/>
      </g>
     </g>
    </g>
    <g id="ytick_9">
     <g id="line2d_77">
      <g>
       <use style="fill:#262626;stroke:#262626;stroke-width:0.8;" x="108.362437" xlink:href="#m8d0878c6dd" y="269.460538"/>
      </g>
     </g>
     <g id="text_16">
      <!-- DBO-pgsql-0 -->
      <g style="fill:#262626;" transform="translate(43.067125 273.103506)scale(0.1 -0.1)">
       <use xlink:href="#ArialMT-44"/>
       <use x="72.216797" xlink:href="#ArialMT-42"/>
       <use x="138.916016" xlink:href="#ArialMT-4f"/>
       <use x="216.699219" xlink:href="#ArialMT-2d"/>
       <use x="250" xlink:href="#ArialMT-70"/>
       <use x="305.615234" xlink:href="#ArialMT-67"/>
       <use x="361.230469" xlink:href="#ArialMT-73"/>
       <use x="411.230469" xlink:href="#ArialMT-71"/>
       <use x="466.845703" xlink:href="#ArialMT-6c"/>
       <use x="489.0625" xlink:href="#ArialMT-2d"/>
       <use x="522.363281" xlink:href="#ArialMT-30"/>
      </g>
     </g>
    </g>
    <g id="ytick_10">
     <g id="line2d_78">
      <g>
       <use style="fill:#262626;stroke:#262626;stroke-width:0.8;" x="108.362437" xlink:href="#m8d0878c6dd" y="299.492013"/>
      </g>
     </g>
     <g id="text_17">
      <!-- DBO-pgsql-1 -->
      <g style="fill:#262626;" transform="translate(43.067125 303.134981)scale(0.1 -0.1)">
       <use xlink:href="#ArialMT-44"/>
       <use x="72.216797" xlink:href="#ArialMT-42"/>
       <use x="138.916016" xlink:href="#ArialMT-4f"/>
       <use x="216.699219" xlink:href="#ArialMT-2d"/>
       <use x="250" xlink:href="#ArialMT-70"/>
       <use x="305.615234" xlink:href="#ArialMT-67"/>
       <use x="361.230469" xlink:href="#ArialMT-73"/>
       <use x="411.230469" xlink:href="#ArialMT-71"/>
       <use x="466.845703" xlink:href="#ArialMT-6c"/>
       <use x="489.0625" xlink:href="#ArialMT-2d"/>
       <use x="522.363281" xlink:href="#ArialMT-31"/>
      </g>
     </g>
    </g>
    <g id="ytick_11">
     <g id="line2d_79">
      <path clip-path="url(#p5ee90c99e5)" d="M 108.362437 44.224475 
L 505.8045 44.224475 
" style="fill:none;opacity:0.2;stroke:#000000;stroke-dasharray:1.85,0.8;stroke-dashoffset:0;stroke-width:0.5;"/>
     </g>
     <g id="line2d_80"/>
    </g>
    <g id="ytick_12">
     <g id="line2d_81">
      <path clip-path="url(#p5ee90c99e5)" d="M 108.362437 74.25595 
L 505.8045 74.25595 
" style="fill:none;opacity:0.2;stroke:#000000;stroke-dasharray:1.85,0.8;stroke-dashoffset:0;stroke-width:0.5;"/>
     </g>
     <g id="line2d_82"/>
    </g>
    <g id="ytick_13">
     <g id="line2d_83">
      <path clip-path="url(#p5ee90c99e5)" d="M 108.362437 104.287425 
L 505.8045 104.287425 
" style="fill:none;opacity:0.2;stroke:#000000;stroke-dasharray:1.85,0.8;stroke-dashoffset:0;stroke-width:0.5;"/>
     </g>
     <g id="line2d_84"/>
    </g>
    <g id="ytick_14">
     <g id="line2d_85">
      <path clip-path="url(#p5ee90c99e5)" d="M 108.362437 134.3189 
L 505.8045 134.3189 
" style="fill:none;opacity:0.2;stroke:#000000;stroke-dasharray:1.85,0.8;stroke-dashoffset:0;stroke-width:0.5;"/>
     </g>
     <g id="line2d_86"/>
    </g>
    <g id="ytick_15">
     <g id="line2d_87">
      <path clip-path="url(#p5ee90c99e5)" d="M 108.362437 164.350375 
L 505.8045 164.350375 
" style="fill:none;opacity:0.2;stroke:#000000;stroke-dasharray:1.85,0.8;stroke-dashoffset:0;stroke-width:0.5;"/>
     </g>
     <g id="line2d_88"/>
    </g>
    <g id="ytick_16">
     <g id="line2d_89">
      <path clip-path="url(#p5ee90c99e5)" d="M 108.362437 194.38185 
L 505.8045 194.38185 
" style="fill:none;opacity:0.2;stroke:#000000;stroke-dasharray:1.85,0.8;stroke-dashoffset:0;stroke-width:0.5;"/>
     </g>
     <g id="line2d_90"/>
    </g>
    <g id="ytick_17">
     <g id="line2d_91">
      <path clip-path="url(#p5ee90c99e5)" d="M 108.362437 224.413325 
L 505.8045 224.413325 
" style="fill:none;opacity:0.2;stroke:#000000;stroke-dasharray:1.85,0.8;stroke-dashoffset:0;stroke-width:0.5;"/>
     </g>
     <g id="line2d_92"/>
    </g>
    <g id="ytick_18">
     <g id="line2d_93">
      <path clip-path="url(#p5ee90c99e5)" d="M 108.362437 254.4448 
L 505.8045 254.4448 
" style="fill:none;opacity:0.2;stroke:#000000;stroke-dasharray:1.85,0.8;stroke-dashoffset:0;stroke-width:0.5;"/>
     </g>
     <g id="line2d_94"/>
    </g>
    <g id="ytick_19">
     <g id="line2d_95">
      <path clip-path="url(#p5ee90c99e5)" d="M 108.362437 284.476275 
L 505.8045 284.476275 
" style="fill:none;opacity:0.2;stroke:#000000;stroke-dasharray:1.85,0.8;stroke-dashoffset:0;stroke-width:0.5;"/>
     </g>
     <g id="line2d_96"/>
    </g>
    <g id="ytick_20">
     <g id="line2d_97">
      <path clip-path="url(#p5ee90c99e5)" d="M 108.362437 314.50775 
L 505.8045 314.50775 
" style="fill:none;opacity:0.2;stroke:#000000;stroke-dasharray:1.85,0.8;stroke-dashoffset:0;stroke-width:0.5;"/>
     </g>
     <g id="line2d_98"/>
    </g>
   </g>
   <g id="patch_3">
    <path clip-path="url(#p5ee90c99e5)" d="M 182.846119 17.316273 
L 182.846119 29.088612 
L 226.262523 29.088612 
L 226.262523 17.316273 
L 182.846119 17.316273 
z
" style="fill:#3274a1;stroke:#3f3f3f;stroke-linejoin:miter;stroke-width:0.5;"/>
   </g>
   <g id="patch_4">
    <path clip-path="url(#p5ee90c99e5)" d="M 358.53831 29.328863 
L 358.53831 41.101202 
L 369.000127 41.101202 
L 369.000127 29.328863 
L 358.53831 29.328863 
z
" style="fill:#e1812c;stroke:#3f3f3f;stroke-linejoin:miter;stroke-width:0.5;"/>
   </g>
   <g id="patch_5">
    <path clip-path="url(#p5ee90c99e5)" d="M 190.365138 47.347748 
L 190.365138 59.120087 
L 191.963896 59.120087 
L 191.963896 47.347748 
L 190.365138 47.347748 
z
" style="fill:#3274a1;stroke:#3f3f3f;stroke-linejoin:miter;stroke-width:0.5;"/>
   </g>
   <g id="patch_6">
    <path clip-path="url(#p5ee90c99e5)" d="M 298.122278 59.360338 
L 298.122278 71.132677 
L 303.287412 71.132677 
L 303.287412 59.360338 
L 298.122278 59.360338 
z
" style="fill:#e1812c;stroke:#3f3f3f;stroke-linejoin:miter;stroke-width:0.5;"/>
   </g>
   <g id="patch_7">
    <path clip-path="url(#p5ee90c99e5)" d="M 153.636214 77.379223 
L 153.636214 89.151562 
L 154.320586 89.151562 
L 154.320586 77.379223 
L 153.636214 77.379223 
z
" style="fill:#3274a1;stroke:#3f3f3f;stroke-linejoin:miter;stroke-width:0.5;"/>
   </g>
   <g id="patch_8">
    <path clip-path="url(#p5ee90c99e5)" d="M 199.604996 89.391813 
L 199.604996 101.164152 
L 200.45809 101.164152 
L 200.45809 89.391813 
L 199.604996 89.391813 
z
" style="fill:#e1812c;stroke:#3f3f3f;stroke-linejoin:miter;stroke-width:0.5;"/>
   </g>
   <g id="patch_9">
    <path clip-path="url(#p5ee90c99e5)" d="M 152.439948 107.410698 
L 152.439948 119.183037 
L 153.576689 119.183037 
L 153.576689 107.410698 
L 152.439948 107.410698 
z
" style="fill:#3274a1;stroke:#3f3f3f;stroke-linejoin:miter;stroke-width:0.5;"/>
   </g>
   <g id="patch_10">
    <path clip-path="url(#p5ee90c99e5)" d="M 323.76919 119.423288 
L 323.76919 131.195627 
L 328.140172 131.195627 
L 328.140172 119.423288 
L 323.76919 119.423288 
z
" style="fill:#e1812c;stroke:#3f3f3f;stroke-linejoin:miter;stroke-width:0.5;"/>
   </g>
   <g id="patch_11">
    <path clip-path="url(#p5ee90c99e5)" d="M 220.408295 137.442173 
L 220.408295 149.214512 
L 223.915632 149.214512 
L 223.915632 137.442173 
L 220.408295 137.442173 
z
" style="fill:#3274a1;stroke:#3f3f3f;stroke-linejoin:miter;stroke-width:0.5;"/>
   </g>
   <g id="patch_12">
    <path clip-path="url(#p5ee90c99e5)" d="M 475.133755 149.454763 
L 475.133755 161.227102 
L 475.197025 161.227102 
L 475.197025 149.454763 
L 475.133755 149.454763 
z
" style="fill:#e1812c;stroke:#3f3f3f;stroke-linejoin:miter;stroke-width:0.5;"/>
   </g>
   <g id="patch_13">
    <path clip-path="url(#p5ee90c99e5)" d="M 205.928051 167.473648 
L 205.928051 179.245987 
L 209.669995 179.245987 
L 209.669995 167.473648 
L 205.928051 167.473648 
z
" style="fill:#3274a1;stroke:#3f3f3f;stroke-linejoin:miter;stroke-width:0.5;"/>
   </g>
   <g id="patch_14">
    <path clip-path="url(#p5ee90c99e5)" d="M 304.170216 179.486238 
L 304.170216 191.258577 
L 306.892128 191.258577 
L 306.892128 179.486238 
L 304.170216 179.486238 
z
" style="fill:#e1812c;stroke:#3f3f3f;stroke-linejoin:miter;stroke-width:0.5;"/>
   </g>
   <g id="patch_15">
    <path clip-path="url(#p5ee90c99e5)" d="M 223.913641 197.505123 
L 223.913641 209.277462 
L 229.047285 209.277462 
L 229.047285 197.505123 
L 223.913641 197.505123 
z
" style="fill:#3274a1;stroke:#3f3f3f;stroke-linejoin:miter;stroke-width:0.5;"/>
   </g>
   <g id="patch_16">
    <path clip-path="url(#p5ee90c99e5)" d="M 183.733215 209.517713 
L 183.733215 221.290052 
L 332.725495 221.290052 
L 332.725495 209.517713 
L 183.733215 209.517713 
z
" style="fill:#e1812c;stroke:#3f3f3f;stroke-linejoin:miter;stroke-width:0.5;"/>
   </g>
   <g id="patch_17">
    <path clip-path="url(#p5ee90c99e5)" d="M 185.900231 227.536598 
L 185.900231 239.308937 
L 191.074893 239.308937 
L 191.074893 227.536598 
L 185.900231 227.536598 
z
" style="fill:#3274a1;stroke:#3f3f3f;stroke-linejoin:miter;stroke-width:0.5;"/>
   </g>
   <g id="patch_18">
    <path clip-path="url(#p5ee90c99e5)" d="M 266.30428 239.549188 
L 266.30428 251.321527 
L 273.735494 251.321527 
L 273.735494 239.549188 
L 266.30428 239.549188 
z
" style="fill:#e1812c;stroke:#3f3f3f;stroke-linejoin:miter;stroke-width:0.5;"/>
   </g>
   <g id="patch_19">
    <path clip-path="url(#p5ee90c99e5)" d="M 132.008909 257.568073 
L 132.008909 269.340412 
L 132.185068 269.340412 
L 132.185068 257.568073 
L 132.008909 257.568073 
z
" style="fill:#3274a1;stroke:#3f3f3f;stroke-linejoin:miter;stroke-width:0.5;"/>
   </g>
   <g id="patch_20">
    <path clip-path="url(#p5ee90c99e5)" d="M 210.172915 269.580663 
L 210.172915 281.353002 
L 210.962752 281.353002 
L 210.962752 269.580663 
L 210.172915 269.580663 
z
" style="fill:#e1812c;stroke:#3f3f3f;stroke-linejoin:miter;stroke-width:0.5;"/>
   </g>
   <g id="patch_21">
    <path clip-path="url(#p5ee90c99e5)" d="M 226.583869 287.599548 
L 226.583869 299.371887 
L 229.425183 299.371887 
L 229.425183 287.599548 
L 226.583869 287.599548 
z
" style="fill:#3274a1;stroke:#3f3f3f;stroke-linejoin:miter;stroke-width:0.5;"/>
   </g>
   <g id="patch_22">
    <path clip-path="url(#p5ee90c99e5)" d="M 400.262312 299.612138 
L 400.262312 311.384477 
L 414.434646 311.384477 
L 414.434646 299.612138 
L 400.262312 299.612138 
z
" style="fill:#e1812c;stroke:#3f3f3f;stroke-linejoin:miter;stroke-width:0.5;"/>
   </g>
   <g id="patch_23">
    <path clip-path="url(#p5ee90c99e5)" d="M 100.244667 29.208737 
L 100.244667 29.208737 
L 100.244667 29.208737 
L 100.244667 29.208737 
z
" style="fill:#3274a1;stroke:#3f3f3f;stroke-linejoin:miter;stroke-width:0.25;"/>
   </g>
   <g id="patch_24">
    <path clip-path="url(#p5ee90c99e5)" d="M 100.244667 29.208737 
L 100.244667 29.208737 
L 100.244667 29.208737 
L 100.244667 29.208737 
z
" style="fill:#e1812c;stroke:#3f3f3f;stroke-linejoin:miter;stroke-width:0.25;"/>
   </g>
   <g id="line2d_99">
    <path clip-path="url(#p5ee90c99e5)" d="M 182.846119 23.202442 
L 179.328488 23.202442 
" style="fill:none;stroke:#3f3f3f;stroke-linecap:round;stroke-width:0.5;"/>
   </g>
   <g id="line2d_100">
    <path clip-path="url(#p5ee90c99e5)" d="M 226.262523 23.202442 
L 230.86427 23.202442 
" style="fill:none;stroke:#3f3f3f;stroke-linecap:round;stroke-width:0.5;"/>
   </g>
   <g id="line2d_101">
    <path clip-path="url(#p5ee90c99e5)" d="M 179.328488 20.259358 
L 179.328488 26.145527 
" style="fill:none;stroke:#3f3f3f;stroke-linecap:round;stroke-width:0.5;"/>
   </g>
   <g id="line2d_102">
    <path clip-path="url(#p5ee90c99e5)" d="M 230.86427 20.259358 
L 230.86427 26.145527 
" style="fill:none;stroke:#3f3f3f;stroke-linecap:round;stroke-width:0.5;"/>
   </g>
   <g id="line2d_103"/>
   <g id="line2d_104">
    <path clip-path="url(#p5ee90c99e5)" d="M 358.53831 35.215032 
L 358.478293 35.215032 
" style="fill:none;stroke:#3f3f3f;stroke-linecap:round;stroke-width:0.5;"/>
   </g>
   <g id="line2d_105">
    <path clip-path="url(#p5ee90c99e5)" d="M 369.000127 35.215032 
L 370.562886 35.215032 
" style="fill:none;stroke:#3f3f3f;stroke-linecap:round;stroke-width:0.5;"/>
   </g>
   <g id="line2d_106">
    <path clip-path="url(#p5ee90c99e5)" d="M 358.478293 32.271948 
L 358.478293 38.158117 
" style="fill:none;stroke:#3f3f3f;stroke-linecap:round;stroke-width:0.5;"/>
   </g>
   <g id="line2d_107">
    <path clip-path="url(#p5ee90c99e5)" d="M 370.562886 32.271948 
L 370.562886 38.158117 
" style="fill:none;stroke:#3f3f3f;stroke-linecap:round;stroke-width:0.5;"/>
   </g>
   <g id="line2d_108"/>
   <g id="line2d_109">
    <path clip-path="url(#p5ee90c99e5)" d="M 190.365138 53.233917 
L 189.676291 53.233917 
" style="fill:none;stroke:#3f3f3f;stroke-linecap:round;stroke-width:0.5;"/>
   </g>
   <g id="line2d_110">
    <path clip-path="url(#p5ee90c99e5)" d="M 191.963896 53.233917 
L 193.257687 53.233917 
" style="fill:none;stroke:#3f3f3f;stroke-linecap:round;stroke-width:0.5;"/>
   </g>
   <g id="line2d_111">
    <path clip-path="url(#p5ee90c99e5)" d="M 189.676291 50.290833 
L 189.676291 56.177002 
" style="fill:none;stroke:#3f3f3f;stroke-linecap:round;stroke-width:0.5;"/>
   </g>
   <g id="line2d_112">
    <path clip-path="url(#p5ee90c99e5)" d="M 193.257687 50.290833 
L 193.257687 56.177002 
" style="fill:none;stroke:#3f3f3f;stroke-linecap:round;stroke-width:0.5;"/>
   </g>
   <g id="line2d_113">
    <defs>
     <path d="M -0 0.459619 
L 0.275772 0 
L 0 -0.459619 
L -0.275772 -0 
z
" id="me3659e4872" style="stroke:#3f3f3f;stroke-linejoin:miter;"/>
    </defs>
    <g clip-path="url(#p5ee90c99e5)">
     <use style="fill:#3f3f3f;stroke:#3f3f3f;stroke-linejoin:miter;" x="186.361961" xlink:href="#me3659e4872" y="53.233917"/>
    </g>
   </g>
   <g id="line2d_114">
    <path clip-path="url(#p5ee90c99e5)" d="M 298.122278 65.246507 
L 297.249184 65.246507 
" style="fill:none;stroke:#3f3f3f;stroke-linecap:round;stroke-width:0.5;"/>
   </g>
   <g id="line2d_115">
    <path clip-path="url(#p5ee90c99e5)" d="M 303.287412 65.246507 
L 304.197774 65.246507 
" style="fill:none;stroke:#3f3f3f;stroke-linecap:round;stroke-width:0.5;"/>
   </g>
   <g id="line2d_116">
    <path clip-path="url(#p5ee90c99e5)" d="M 297.249184 62.303423 
L 297.249184 68.189592 
" style="fill:none;stroke:#3f3f3f;stroke-linecap:round;stroke-width:0.5;"/>
   </g>
   <g id="line2d_117">
    <path clip-path="url(#p5ee90c99e5)" d="M 304.197774 62.303423 
L 304.197774 68.189592 
" style="fill:none;stroke:#3f3f3f;stroke-linecap:round;stroke-width:0.5;"/>
   </g>
   <g id="line2d_118">
    <g clip-path="url(#p5ee90c99e5)">
     <use style="fill:#3f3f3f;stroke:#3f3f3f;stroke-linejoin:miter;" x="323.811476" xlink:href="#me3659e4872" y="65.246507"/>
    </g>
   </g>
   <g id="line2d_119">
    <path clip-path="url(#p5ee90c99e5)" d="M 153.636214 83.265392 
L 152.855343 83.265392 
" style="fill:none;stroke:#3f3f3f;stroke-linecap:round;stroke-width:0.5;"/>
   </g>
   <g id="line2d_120">
    <path clip-path="url(#p5ee90c99e5)" d="M 154.320586 83.265392 
L 154.823371 83.265392 
" style="fill:none;stroke:#3f3f3f;stroke-linecap:round;stroke-width:0.5;"/>
   </g>
   <g id="line2d_121">
    <path clip-path="url(#p5ee90c99e5)" d="M 152.855343 80.322308 
L 152.855343 86.208477 
" style="fill:none;stroke:#3f3f3f;stroke-linecap:round;stroke-width:0.5;"/>
   </g>
   <g id="line2d_122">
    <path clip-path="url(#p5ee90c99e5)" d="M 154.823371 80.322308 
L 154.823371 86.208477 
" style="fill:none;stroke:#3f3f3f;stroke-linecap:round;stroke-width:0.5;"/>
   </g>
   <g id="line2d_123"/>
   <g id="line2d_124">
    <path clip-path="url(#p5ee90c99e5)" d="M 199.604996 95.277983 
L 199.591508 95.277983 
" style="fill:none;stroke:#3f3f3f;stroke-linecap:round;stroke-width:0.5;"/>
   </g>
   <g id="line2d_125">
    <path clip-path="url(#p5ee90c99e5)" d="M 200.45809 95.277983 
L 201.337094 95.277983 
" style="fill:none;stroke:#3f3f3f;stroke-linecap:round;stroke-width:0.5;"/>
   </g>
   <g id="line2d_126">
    <path clip-path="url(#p5ee90c99e5)" d="M 199.591508 92.334898 
L 199.591508 98.221067 
" style="fill:none;stroke:#3f3f3f;stroke-linecap:round;stroke-width:0.5;"/>
   </g>
   <g id="line2d_127">
    <path clip-path="url(#p5ee90c99e5)" d="M 201.337094 92.334898 
L 201.337094 98.221067 
" style="fill:none;stroke:#3f3f3f;stroke-linecap:round;stroke-width:0.5;"/>
   </g>
   <g id="line2d_128"/>
   <g id="line2d_129">
    <path clip-path="url(#p5ee90c99e5)" d="M 152.439948 113.296868 
L 150.991904 113.296868 
" style="fill:none;stroke:#3f3f3f;stroke-linecap:round;stroke-width:0.5;"/>
   </g>
   <g id="line2d_130">
    <path clip-path="url(#p5ee90c99e5)" d="M 153.576689 113.296868 
L 155.083204 113.296868 
" style="fill:none;stroke:#3f3f3f;stroke-linecap:round;stroke-width:0.5;"/>
   </g>
   <g id="line2d_131">
    <path clip-path="url(#p5ee90c99e5)" d="M 150.991904 110.353783 
L 150.991904 116.239952 
" style="fill:none;stroke:#3f3f3f;stroke-linecap:round;stroke-width:0.5;"/>
   </g>
   <g id="line2d_132">
    <path clip-path="url(#p5ee90c99e5)" d="M 155.083204 110.353783 
L 155.083204 116.239952 
" style="fill:none;stroke:#3f3f3f;stroke-linecap:round;stroke-width:0.5;"/>
   </g>
   <g id="line2d_133">
    <g clip-path="url(#p5ee90c99e5)">
     <use style="fill:#3f3f3f;stroke:#3f3f3f;stroke-linejoin:miter;" x="149.711942" xlink:href="#me3659e4872" y="113.296868"/>
    </g>
   </g>
   <g id="line2d_134">
    <path clip-path="url(#p5ee90c99e5)" d="M 323.76919 125.309458 
L 319.574736 125.309458 
" style="fill:none;stroke:#3f3f3f;stroke-linecap:round;stroke-width:0.5;"/>
   </g>
   <g id="line2d_135">
    <path clip-path="url(#p5ee90c99e5)" d="M 328.140172 125.309458 
L 328.200029 125.309458 
" style="fill:none;stroke:#3f3f3f;stroke-linecap:round;stroke-width:0.5;"/>
   </g>
   <g id="line2d_136">
    <path clip-path="url(#p5ee90c99e5)" d="M 319.574736 122.366373 
L 319.574736 128.252542 
" style="fill:none;stroke:#3f3f3f;stroke-linecap:round;stroke-width:0.5;"/>
   </g>
   <g id="line2d_137">
    <path clip-path="url(#p5ee90c99e5)" d="M 328.200029 122.366373 
L 328.200029 128.252542 
" style="fill:none;stroke:#3f3f3f;stroke-linecap:round;stroke-width:0.5;"/>
   </g>
   <g id="line2d_138"/>
   <g id="line2d_139">
    <path clip-path="url(#p5ee90c99e5)" d="M 220.408295 143.328343 
L 219.868796 143.328343 
" style="fill:none;stroke:#3f3f3f;stroke-linecap:round;stroke-width:0.5;"/>
   </g>
   <g id="line2d_140">
    <path clip-path="url(#p5ee90c99e5)" d="M 223.915632 143.328343 
L 225.261801 143.328343 
" style="fill:none;stroke:#3f3f3f;stroke-linecap:round;stroke-width:0.5;"/>
   </g>
   <g id="line2d_141">
    <path clip-path="url(#p5ee90c99e5)" d="M 219.868796 140.385258 
L 219.868796 146.271427 
" style="fill:none;stroke:#3f3f3f;stroke-linecap:round;stroke-width:0.5;"/>
   </g>
   <g id="line2d_142">
    <path clip-path="url(#p5ee90c99e5)" d="M 225.261801 140.385258 
L 225.261801 146.271427 
" style="fill:none;stroke:#3f3f3f;stroke-linecap:round;stroke-width:0.5;"/>
   </g>
   <g id="line2d_143"/>
   <g id="line2d_144">
    <path clip-path="url(#p5ee90c99e5)" d="M 475.133755 155.340933 
L 475.129245 155.340933 
" style="fill:none;stroke:#3f3f3f;stroke-linecap:round;stroke-width:0.5;"/>
   </g>
   <g id="line2d_145">
    <path clip-path="url(#p5ee90c99e5)" d="M 475.197025 155.340933 
L 475.205739 155.340933 
" style="fill:none;stroke:#3f3f3f;stroke-linecap:round;stroke-width:0.5;"/>
   </g>
   <g id="line2d_146">
    <path clip-path="url(#p5ee90c99e5)" d="M 475.129245 152.397848 
L 475.129245 158.284017 
" style="fill:none;stroke:#3f3f3f;stroke-linecap:round;stroke-width:0.5;"/>
   </g>
   <g id="line2d_147">
    <path clip-path="url(#p5ee90c99e5)" d="M 475.205739 152.397848 
L 475.205739 158.284017 
" style="fill:none;stroke:#3f3f3f;stroke-linecap:round;stroke-width:0.5;"/>
   </g>
   <g id="line2d_148">
    <g clip-path="url(#p5ee90c99e5)">
     <use style="fill:#3f3f3f;stroke:#3f3f3f;stroke-linejoin:miter;" x="463.518833" xlink:href="#me3659e4872" y="155.340933"/>
     <use style="fill:#3f3f3f;stroke:#3f3f3f;stroke-linejoin:miter;" x="463.413124" xlink:href="#me3659e4872" y="155.340933"/>
     <use style="fill:#3f3f3f;stroke:#3f3f3f;stroke-linejoin:miter;" x="487.660555" xlink:href="#me3659e4872" y="155.340933"/>
     <use style="fill:#3f3f3f;stroke:#3f3f3f;stroke-linejoin:miter;" x="487.738952" xlink:href="#me3659e4872" y="155.340933"/>
    </g>
   </g>
   <g id="line2d_149">
    <path clip-path="url(#p5ee90c99e5)" d="M 205.928051 173.359818 
L 204.043274 173.359818 
" style="fill:none;stroke:#3f3f3f;stroke-linecap:round;stroke-width:0.5;"/>
   </g>
   <g id="line2d_150">
    <path clip-path="url(#p5ee90c99e5)" d="M 209.669995 173.359818 
L 210.934102 173.359818 
" style="fill:none;stroke:#3f3f3f;stroke-linecap:round;stroke-width:0.5;"/>
   </g>
   <g id="line2d_151">
    <path clip-path="url(#p5ee90c99e5)" d="M 204.043274 170.416733 
L 204.043274 176.302902 
" style="fill:none;stroke:#3f3f3f;stroke-linecap:round;stroke-width:0.5;"/>
   </g>
   <g id="line2d_152">
    <path clip-path="url(#p5ee90c99e5)" d="M 210.934102 170.416733 
L 210.934102 176.302902 
" style="fill:none;stroke:#3f3f3f;stroke-linecap:round;stroke-width:0.5;"/>
   </g>
   <g id="line2d_153"/>
   <g id="line2d_154">
    <path clip-path="url(#p5ee90c99e5)" d="M 304.170216 185.372408 
L 300.654769 185.372408 
" style="fill:none;stroke:#3f3f3f;stroke-linecap:round;stroke-width:0.5;"/>
   </g>
   <g id="line2d_155">
    <path clip-path="url(#p5ee90c99e5)" d="M 306.892128 185.372408 
L 307.820443 185.372408 
" style="fill:none;stroke:#3f3f3f;stroke-linecap:round;stroke-width:0.5;"/>
   </g>
   <g id="line2d_156">
    <path clip-path="url(#p5ee90c99e5)" d="M 300.654769 182.429323 
L 300.654769 188.315492 
" style="fill:none;stroke:#3f3f3f;stroke-linecap:round;stroke-width:0.5;"/>
   </g>
   <g id="line2d_157">
    <path clip-path="url(#p5ee90c99e5)" d="M 307.820443 182.429323 
L 307.820443 188.315492 
" style="fill:none;stroke:#3f3f3f;stroke-linecap:round;stroke-width:0.5;"/>
   </g>
   <g id="line2d_158">
    <g clip-path="url(#p5ee90c99e5)">
     <use style="fill:#3f3f3f;stroke:#3f3f3f;stroke-linejoin:miter;" x="192.511649" xlink:href="#me3659e4872" y="185.372408"/>
    </g>
   </g>
   <g id="line2d_159">
    <path clip-path="url(#p5ee90c99e5)" d="M 223.913641 203.391293 
L 221.354114 203.391293 
" style="fill:none;stroke:#3f3f3f;stroke-linecap:round;stroke-width:0.5;"/>
   </g>
   <g id="line2d_160">
    <path clip-path="url(#p5ee90c99e5)" d="M 229.047285 203.391293 
L 230.883088 203.391293 
" style="fill:none;stroke:#3f3f3f;stroke-linecap:round;stroke-width:0.5;"/>
   </g>
   <g id="line2d_161">
    <path clip-path="url(#p5ee90c99e5)" d="M 221.354114 200.448208 
L 221.354114 206.334377 
" style="fill:none;stroke:#3f3f3f;stroke-linecap:round;stroke-width:0.5;"/>
   </g>
   <g id="line2d_162">
    <path clip-path="url(#p5ee90c99e5)" d="M 230.883088 200.448208 
L 230.883088 206.334377 
" style="fill:none;stroke:#3f3f3f;stroke-linecap:round;stroke-width:0.5;"/>
   </g>
   <g id="line2d_163">
    <g clip-path="url(#p5ee90c99e5)">
     <use style="fill:#3f3f3f;stroke:#3f3f3f;stroke-linejoin:miter;" x="163.426792" xlink:href="#me3659e4872" y="203.391293"/>
    </g>
   </g>
   <g id="line2d_164">
    <path clip-path="url(#p5ee90c99e5)" d="M 183.733215 215.403883 
L 177.218878 215.403883 
" style="fill:none;stroke:#3f3f3f;stroke-linecap:round;stroke-width:0.5;"/>
   </g>
   <g id="line2d_165">
    <path clip-path="url(#p5ee90c99e5)" d="M 332.725495 215.403883 
L 342.401551 215.403883 
" style="fill:none;stroke:#3f3f3f;stroke-linecap:round;stroke-width:0.5;"/>
   </g>
   <g id="line2d_166">
    <path clip-path="url(#p5ee90c99e5)" d="M 177.218878 212.460798 
L 177.218878 218.346967 
" style="fill:none;stroke:#3f3f3f;stroke-linecap:round;stroke-width:0.5;"/>
   </g>
   <g id="line2d_167">
    <path clip-path="url(#p5ee90c99e5)" d="M 342.401551 212.460798 
L 342.401551 218.346967 
" style="fill:none;stroke:#3f3f3f;stroke-linecap:round;stroke-width:0.5;"/>
   </g>
   <g id="line2d_168"/>
   <g id="line2d_169">
    <path clip-path="url(#p5ee90c99e5)" d="M 185.900231 233.422768 
L 185.097373 233.422768 
" style="fill:none;stroke:#3f3f3f;stroke-linecap:round;stroke-width:0.5;"/>
   </g>
   <g id="line2d_170">
    <path clip-path="url(#p5ee90c99e5)" d="M 191.074893 233.422768 
L 192.509313 233.422768 
" style="fill:none;stroke:#3f3f3f;stroke-linecap:round;stroke-width:0.5;"/>
   </g>
   <g id="line2d_171">
    <path clip-path="url(#p5ee90c99e5)" d="M 185.097373 230.479683 
L 185.097373 236.365852 
" style="fill:none;stroke:#3f3f3f;stroke-linecap:round;stroke-width:0.5;"/>
   </g>
   <g id="line2d_172">
    <path clip-path="url(#p5ee90c99e5)" d="M 192.509313 230.479683 
L 192.509313 236.365852 
" style="fill:none;stroke:#3f3f3f;stroke-linecap:round;stroke-width:0.5;"/>
   </g>
   <g id="line2d_173">
    <g clip-path="url(#p5ee90c99e5)">
     <use style="fill:#3f3f3f;stroke:#3f3f3f;stroke-linejoin:miter;" x="155.086202" xlink:href="#me3659e4872" y="233.422768"/>
     <use style="fill:#3f3f3f;stroke:#3f3f3f;stroke-linejoin:miter;" x="156.956217" xlink:href="#me3659e4872" y="233.422768"/>
    </g>
   </g>
   <g id="line2d_174">
    <path clip-path="url(#p5ee90c99e5)" d="M 266.30428 245.435358 
L 266.297014 245.435358 
" style="fill:none;stroke:#3f3f3f;stroke-linecap:round;stroke-width:0.5;"/>
   </g>
   <g id="line2d_175">
    <path clip-path="url(#p5ee90c99e5)" d="M 273.735494 245.435358 
L 284.7387 245.435358 
" style="fill:none;stroke:#3f3f3f;stroke-linecap:round;stroke-width:0.5;"/>
   </g>
   <g id="line2d_176">
    <path clip-path="url(#p5ee90c99e5)" d="M 266.297014 242.492273 
L 266.297014 248.378442 
" style="fill:none;stroke:#3f3f3f;stroke-linecap:round;stroke-width:0.5;"/>
   </g>
   <g id="line2d_177">
    <path clip-path="url(#p5ee90c99e5)" d="M 284.7387 242.492273 
L 284.7387 248.378442 
" style="fill:none;stroke:#3f3f3f;stroke-linecap:round;stroke-width:0.5;"/>
   </g>
   <g id="line2d_178">
    <g clip-path="url(#p5ee90c99e5)">
     <use style="fill:#3f3f3f;stroke:#3f3f3f;stroke-linejoin:miter;" x="182.116159" xlink:href="#me3659e4872" y="245.435358"/>
     <use style="fill:#3f3f3f;stroke:#3f3f3f;stroke-linejoin:miter;" x="174.771067" xlink:href="#me3659e4872" y="245.435358"/>
    </g>
   </g>
   <g id="line2d_179">
    <path clip-path="url(#p5ee90c99e5)" d="M 132.008909 263.454243 
L 131.836559 263.454243 
" style="fill:none;stroke:#3f3f3f;stroke-linecap:round;stroke-width:0.5;"/>
   </g>
   <g id="line2d_180">
    <path clip-path="url(#p5ee90c99e5)" d="M 132.185068 263.454243 
L 132.359704 263.454243 
" style="fill:none;stroke:#3f3f3f;stroke-linecap:round;stroke-width:0.5;"/>
   </g>
   <g id="line2d_181">
    <path clip-path="url(#p5ee90c99e5)" d="M 131.836559 260.511158 
L 131.836559 266.397327 
" style="fill:none;stroke:#3f3f3f;stroke-linecap:round;stroke-width:0.5;"/>
   </g>
   <g id="line2d_182">
    <path clip-path="url(#p5ee90c99e5)" d="M 132.359704 260.511158 
L 132.359704 266.397327 
" style="fill:none;stroke:#3f3f3f;stroke-linecap:round;stroke-width:0.5;"/>
   </g>
   <g id="line2d_183">
    <g clip-path="url(#p5ee90c99e5)">
     <use style="fill:#3f3f3f;stroke:#3f3f3f;stroke-linejoin:miter;" x="126.427986" xlink:href="#me3659e4872" y="263.454243"/>
     <use style="fill:#3f3f3f;stroke:#3f3f3f;stroke-linejoin:miter;" x="134.23817" xlink:href="#me3659e4872" y="263.454243"/>
    </g>
   </g>
   <g id="line2d_184">
    <path clip-path="url(#p5ee90c99e5)" d="M 210.172915 275.466833 
L 209.913357 275.466833 
" style="fill:none;stroke:#3f3f3f;stroke-linecap:round;stroke-width:0.5;"/>
   </g>
   <g id="line2d_185">
    <path clip-path="url(#p5ee90c99e5)" d="M 210.962752 275.466833 
L 212.021955 275.466833 
" style="fill:none;stroke:#3f3f3f;stroke-linecap:round;stroke-width:0.5;"/>
   </g>
   <g id="line2d_186">
    <path clip-path="url(#p5ee90c99e5)" d="M 209.913357 272.523748 
L 209.913357 278.409917 
" style="fill:none;stroke:#3f3f3f;stroke-linecap:round;stroke-width:0.5;"/>
   </g>
   <g id="line2d_187">
    <path clip-path="url(#p5ee90c99e5)" d="M 212.021955 272.523748 
L 212.021955 278.409917 
" style="fill:none;stroke:#3f3f3f;stroke-linecap:round;stroke-width:0.5;"/>
   </g>
   <g id="line2d_188">
    <g clip-path="url(#p5ee90c99e5)">
     <use style="fill:#3f3f3f;stroke:#3f3f3f;stroke-linejoin:miter;" x="206.888223" xlink:href="#me3659e4872" y="275.466833"/>
     <use style="fill:#3f3f3f;stroke:#3f3f3f;stroke-linejoin:miter;" x="157.792741" xlink:href="#me3659e4872" y="275.466833"/>
    </g>
   </g>
   <g id="line2d_189">
    <path clip-path="url(#p5ee90c99e5)" d="M 226.583869 293.485718 
L 226.577848 293.485718 
" style="fill:none;stroke:#3f3f3f;stroke-linecap:round;stroke-width:0.5;"/>
   </g>
   <g id="line2d_190">
    <path clip-path="url(#p5ee90c99e5)" d="M 229.425183 293.485718 
L 232.359475 293.485718 
" style="fill:none;stroke:#3f3f3f;stroke-linecap:round;stroke-width:0.5;"/>
   </g>
   <g id="line2d_191">
    <path clip-path="url(#p5ee90c99e5)" d="M 226.577848 290.542633 
L 226.577848 296.428802 
" style="fill:none;stroke:#3f3f3f;stroke-linecap:round;stroke-width:0.5;"/>
   </g>
   <g id="line2d_192">
    <path clip-path="url(#p5ee90c99e5)" d="M 232.359475 290.542633 
L 232.359475 296.428802 
" style="fill:none;stroke:#3f3f3f;stroke-linecap:round;stroke-width:0.5;"/>
   </g>
   <g id="line2d_193">
    <g clip-path="url(#p5ee90c99e5)">
     <use style="fill:#3f3f3f;stroke:#3f3f3f;stroke-linejoin:miter;" x="169.858014" xlink:href="#me3659e4872" y="293.485718"/>
     <use style="fill:#3f3f3f;stroke:#3f3f3f;stroke-linejoin:miter;" x="172.885088" xlink:href="#me3659e4872" y="293.485718"/>
    </g>
   </g>
   <g id="line2d_194">
    <path clip-path="url(#p5ee90c99e5)" d="M 400.262312 305.498308 
L 398.298997 305.498308 
" style="fill:none;stroke:#3f3f3f;stroke-linecap:round;stroke-width:0.5;"/>
   </g>
   <g id="line2d_195">
    <path clip-path="url(#p5ee90c99e5)" d="M 414.434646 305.498308 
L 423.082251 305.498308 
" style="fill:none;stroke:#3f3f3f;stroke-linecap:round;stroke-width:0.5;"/>
   </g>
   <g id="line2d_196">
    <path clip-path="url(#p5ee90c99e5)" d="M 398.298997 302.555223 
L 398.298997 308.441392 
" style="fill:none;stroke:#3f3f3f;stroke-linecap:round;stroke-width:0.5;"/>
   </g>
   <g id="line2d_197">
    <path clip-path="url(#p5ee90c99e5)" d="M 423.082251 302.555223 
L 423.082251 308.441392 
" style="fill:none;stroke:#3f3f3f;stroke-linecap:round;stroke-width:0.5;"/>
   </g>
   <g id="line2d_198">
    <g clip-path="url(#p5ee90c99e5)">
     <use style="fill:#3f3f3f;stroke:#3f3f3f;stroke-linejoin:miter;" x="218.887757" xlink:href="#me3659e4872" y="305.498308"/>
     <use style="fill:#3f3f3f;stroke:#3f3f3f;stroke-linejoin:miter;" x="217.673241" xlink:href="#me3659e4872" y="305.498308"/>
    </g>
   </g>
   <g id="line2d_199">
    <path clip-path="url(#p5ee90c99e5)" d="M 223.93697 17.316273 
L 223.93697 29.088612 
" style="fill:none;stroke:#3f3f3f;stroke-linecap:round;stroke-width:0.5;"/>
   </g>
   <g id="line2d_200">
    <path clip-path="url(#p5ee90c99e5)" d="M 361.495046 29.328863 
L 361.495046 41.101202 
" style="fill:none;stroke:#3f3f3f;stroke-linecap:round;stroke-width:0.5;"/>
   </g>
   <g id="line2d_201">
    <path clip-path="url(#p5ee90c99e5)" d="M 190.723563 47.347748 
L 190.723563 59.120087 
" style="fill:none;stroke:#3f3f3f;stroke-linecap:round;stroke-width:0.5;"/>
   </g>
   <g id="line2d_202">
    <path clip-path="url(#p5ee90c99e5)" d="M 300.663318 59.360338 
L 300.663318 71.132677 
" style="fill:none;stroke:#3f3f3f;stroke-linecap:round;stroke-width:0.5;"/>
   </g>
   <g id="line2d_203">
    <path clip-path="url(#p5ee90c99e5)" d="M 153.949893 77.379223 
L 153.949893 89.151562 
" style="fill:none;stroke:#3f3f3f;stroke-linecap:round;stroke-width:0.5;"/>
   </g>
   <g id="line2d_204">
    <path clip-path="url(#p5ee90c99e5)" d="M 200.031505 89.391813 
L 200.031505 101.164152 
" style="fill:none;stroke:#3f3f3f;stroke-linecap:round;stroke-width:0.5;"/>
   </g>
   <g id="line2d_205">
    <path clip-path="url(#p5ee90c99e5)" d="M 153.202432 107.410698 
L 153.202432 119.183037 
" style="fill:none;stroke:#3f3f3f;stroke-linecap:round;stroke-width:0.5;"/>
   </g>
   <g id="line2d_206">
    <path clip-path="url(#p5ee90c99e5)" d="M 325.942821 119.423288 
L 325.942821 131.195627 
" style="fill:none;stroke:#3f3f3f;stroke-linecap:round;stroke-width:0.5;"/>
   </g>
   <g id="line2d_207">
    <path clip-path="url(#p5ee90c99e5)" d="M 222.600872 137.442173 
L 222.600872 149.214512 
" style="fill:none;stroke:#3f3f3f;stroke-linecap:round;stroke-width:0.5;"/>
   </g>
   <g id="line2d_208">
    <path clip-path="url(#p5ee90c99e5)" d="M 475.156875 149.454763 
L 475.156875 161.227102 
" style="fill:none;stroke:#3f3f3f;stroke-linecap:round;stroke-width:0.5;"/>
   </g>
   <g id="line2d_209">
    <path clip-path="url(#p5ee90c99e5)" d="M 206.42203 167.473648 
L 206.42203 179.245987 
" style="fill:none;stroke:#3f3f3f;stroke-linecap:round;stroke-width:0.5;"/>
   </g>
   <g id="line2d_210">
    <path clip-path="url(#p5ee90c99e5)" d="M 304.196133 179.486238 
L 304.196133 191.258577 
" style="fill:none;stroke:#3f3f3f;stroke-linecap:round;stroke-width:0.5;"/>
   </g>
   <g id="line2d_211">
    <path clip-path="url(#p5ee90c99e5)" d="M 226.623561 197.505123 
L 226.623561 209.277462 
" style="fill:none;stroke:#3f3f3f;stroke-linecap:round;stroke-width:0.5;"/>
   </g>
   <g id="line2d_212">
    <path clip-path="url(#p5ee90c99e5)" d="M 312.224494 209.517713 
L 312.224494 221.290052 
" style="fill:none;stroke:#3f3f3f;stroke-linecap:round;stroke-width:0.5;"/>
   </g>
   <g id="line2d_213">
    <path clip-path="url(#p5ee90c99e5)" d="M 190.369366 227.536598 
L 190.369366 239.308937 
" style="fill:none;stroke:#3f3f3f;stroke-linecap:round;stroke-width:0.5;"/>
   </g>
   <g id="line2d_214">
    <path clip-path="url(#p5ee90c99e5)" d="M 269.97102 239.549188 
L 269.97102 251.321527 
" style="fill:none;stroke:#3f3f3f;stroke-linecap:round;stroke-width:0.5;"/>
   </g>
   <g id="line2d_215">
    <path clip-path="url(#p5ee90c99e5)" d="M 132.012066 257.568073 
L 132.012066 269.340412 
" style="fill:none;stroke:#3f3f3f;stroke-linecap:round;stroke-width:0.5;"/>
   </g>
   <g id="line2d_216">
    <path clip-path="url(#p5ee90c99e5)" d="M 210.957022 269.580663 
L 210.957022 281.353002 
" style="fill:none;stroke:#3f3f3f;stroke-linecap:round;stroke-width:0.5;"/>
   </g>
   <g id="line2d_217">
    <path clip-path="url(#p5ee90c99e5)" d="M 227.257528 287.599548 
L 227.257528 299.371887 
" style="fill:none;stroke:#3f3f3f;stroke-linecap:round;stroke-width:0.5;"/>
   </g>
   <g id="line2d_218">
    <path clip-path="url(#p5ee90c99e5)" d="M 410.260072 299.612138 
L 410.260072 311.384477 
" style="fill:none;stroke:#3f3f3f;stroke-linecap:round;stroke-width:0.5;"/>
   </g>
   <g id="patch_25">
    <path d="M 108.362437 314.50775 
L 108.362437 14.193 
" style="fill:none;stroke:#cccccc;stroke-linecap:square;stroke-linejoin:miter;"/>
   </g>
   <g id="patch_26">
    <path d="M 505.8045 314.50775 
L 505.8045 14.193 
" style="fill:none;stroke:#cccccc;stroke-linecap:square;stroke-linejoin:miter;"/>
   </g>
   <g id="patch_27">
    <path d="M 108.362437 314.50775 
L 505.8045 314.50775 
" style="fill:none;stroke:#cccccc;stroke-linecap:square;stroke-linejoin:miter;"/>
   </g>
   <g id="patch_28">
    <path d="M 108.362437 14.193 
L 505.8045 14.193 
" style="fill:none;stroke:#cccccc;stroke-linecap:square;stroke-linejoin:miter;"/>
   </g>
   <g id="legend_1">
    <g id="patch_29">
     <path d="M 436.009187 289.25775 
L 456.009187 289.25775 
L 456.009187 282.25775 
L 436.009187 282.25775 
z
" style="fill:#3274a1;stroke:#3f3f3f;stroke-linejoin:miter;stroke-width:0.25;"/>
    </g>
    <g id="text_18">
     <!-- forpsi -->
     <defs>
      <path d="M 8.6875 0 
L 8.6875 45.015625 
L 0.921875 45.015625 
L 0.921875 51.859375 
L 8.6875 51.859375 
L 8.6875 57.375 
Q 8.6875 62.59375 9.625 65.140625 
Q 10.890625 68.5625 14.078125 70.671875 
Q 17.28125 72.796875 23.046875 72.796875 
Q 26.765625 72.796875 31.25 71.921875 
L 29.9375 64.265625 
Q 27.203125 64.75 24.75 64.75 
Q 20.75 64.75 19.09375 63.03125 
Q 17.4375 61.328125 17.4375 56.640625 
L 17.4375 51.859375 
L 27.546875 51.859375 
L 27.546875 45.015625 
L 17.4375 45.015625 
L 17.4375 0 
z
" id="ArialMT-66"/>
      <path d="M 6.5 0 
L 6.5 51.859375 
L 14.40625 51.859375 
L 14.40625 44 
Q 17.4375 49.515625 20 51.265625 
Q 22.5625 53.03125 25.640625 53.03125 
Q 30.078125 53.03125 34.671875 50.203125 
L 31.640625 42.046875 
Q 28.421875 43.953125 25.203125 43.953125 
Q 22.3125 43.953125 20.015625 42.21875 
Q 17.71875 40.484375 16.75 37.40625 
Q 15.28125 32.71875 15.28125 27.15625 
L 15.28125 0 
z
" id="ArialMT-72"/>
     </defs>
     <g style="fill:#262626;" transform="translate(464.009187 289.25775)scale(0.1 -0.1)">
      <use xlink:href="#ArialMT-66"/>
      <use x="27.783203" xlink:href="#ArialMT-6f"/>
      <use x="83.398438" xlink:href="#ArialMT-72"/>
      <use x="116.699219" xlink:href="#ArialMT-70"/>
      <use x="172.314453" xlink:href="#ArialMT-73"/>
      <use x="222.314453" xlink:href="#ArialMT-69"/>
     </g>
    </g>
    <g id="patch_30">
     <path d="M 436.009187 303.403063 
L 456.009187 303.403063 
L 456.009187 296.403063 
L 436.009187 296.403063 
z
" style="fill:#e1812c;stroke:#3f3f3f;stroke-linejoin:miter;stroke-width:0.25;"/>
    </g>
    <g id="text_19">
     <!-- c4large -->
     <defs>
      <path d="M 40.4375 19 
L 49.078125 17.875 
Q 47.65625 8.9375 41.8125 3.875 
Q 35.984375 -1.171875 27.484375 -1.171875 
Q 16.84375 -1.171875 10.375 5.78125 
Q 3.90625 12.75 3.90625 25.734375 
Q 3.90625 34.125 6.6875 40.421875 
Q 9.46875 46.734375 15.15625 49.875 
Q 20.84375 53.03125 27.546875 53.03125 
Q 35.984375 53.03125 41.359375 48.75 
Q 46.734375 44.484375 48.25 36.625 
L 39.703125 35.296875 
Q 38.484375 40.53125 35.375 43.15625 
Q 32.28125 45.796875 27.875 45.796875 
Q 21.234375 45.796875 17.078125 41.03125 
Q 12.9375 36.28125 12.9375 25.984375 
Q 12.9375 15.53125 16.9375 10.796875 
Q 20.953125 6.0625 27.390625 6.0625 
Q 32.5625 6.0625 36.03125 9.234375 
Q 39.5 12.40625 40.4375 19 
z
" id="ArialMT-63"/>
      <path d="M 40.4375 6.390625 
Q 35.546875 2.25 31.03125 0.53125 
Q 26.515625 -1.171875 21.34375 -1.171875 
Q 12.796875 -1.171875 8.203125 3 
Q 3.609375 7.171875 3.609375 13.671875 
Q 3.609375 17.484375 5.34375 20.625 
Q 7.078125 23.78125 9.890625 25.6875 
Q 12.703125 27.59375 16.21875 28.5625 
Q 18.796875 29.25 24.03125 29.890625 
Q 34.671875 31.15625 39.703125 32.90625 
Q 39.75 34.71875 39.75 35.203125 
Q 39.75 40.578125 37.25 42.78125 
Q 33.890625 45.75 27.25 45.75 
Q 21.046875 45.75 18.09375 43.578125 
Q 15.140625 41.40625 13.71875 35.890625 
L 5.125 37.0625 
Q 6.296875 42.578125 8.984375 45.96875 
Q 11.671875 49.359375 16.75 51.1875 
Q 21.828125 53.03125 28.515625 53.03125 
Q 35.15625 53.03125 39.296875 51.46875 
Q 43.453125 49.90625 45.40625 47.53125 
Q 47.359375 45.171875 48.140625 41.546875 
Q 48.578125 39.3125 48.578125 33.453125 
L 48.578125 21.734375 
Q 48.578125 9.46875 49.140625 6.21875 
Q 49.703125 2.984375 51.375 0 
L 42.1875 0 
Q 40.828125 2.734375 40.4375 6.390625 
z
M 39.703125 26.03125 
Q 34.90625 24.078125 25.34375 22.703125 
Q 19.921875 21.921875 17.671875 20.9375 
Q 15.4375 19.96875 14.203125 18.09375 
Q 12.984375 16.21875 12.984375 13.921875 
Q 12.984375 10.40625 15.640625 8.0625 
Q 18.3125 5.71875 23.4375 5.71875 
Q 28.515625 5.71875 32.46875 7.9375 
Q 36.421875 10.15625 38.28125 14.015625 
Q 39.703125 17 39.703125 22.796875 
z
" id="ArialMT-61"/>
      <path d="M 42.09375 16.703125 
L 51.171875 15.578125 
Q 49.03125 7.625 43.21875 3.21875 
Q 37.40625 -1.171875 28.375 -1.171875 
Q 17 -1.171875 10.328125 5.828125 
Q 3.65625 12.84375 3.65625 25.484375 
Q 3.65625 38.578125 10.390625 45.796875 
Q 17.140625 53.03125 27.875 53.03125 
Q 38.28125 53.03125 44.875 45.953125 
Q 51.46875 38.875 51.46875 26.03125 
Q 51.46875 25.25 51.421875 23.6875 
L 12.75 23.6875 
Q 13.234375 15.140625 17.578125 10.59375 
Q 21.921875 6.0625 28.421875 6.0625 
Q 33.25 6.0625 36.671875 8.59375 
Q 40.09375 11.140625 42.09375 16.703125 
z
M 13.234375 30.90625 
L 42.1875 30.90625 
Q 41.609375 37.453125 38.875 40.71875 
Q 34.671875 45.796875 27.984375 45.796875 
Q 21.921875 45.796875 17.796875 41.75 
Q 13.671875 37.703125 13.234375 30.90625 
z
" id="ArialMT-65"/>
     </defs>
     <g style="fill:#262626;" transform="translate(464.009187 303.403063)scale(0.1 -0.1)">
      <use xlink:href="#ArialMT-63"/>
      <use x="50" xlink:href="#ArialMT-34"/>
      <use x="105.615234" xlink:href="#ArialMT-6c"/>
      <use x="127.832031" xlink:href="#ArialMT-61"/>
      <use x="183.447266" xlink:href="#ArialMT-72"/>
      <use x="216.748047" xlink:href="#ArialMT-67"/>
      <use x="272.363281" xlink:href="#ArialMT-65"/>
     </g>
    </g>
   </g>
  </g>
 </g>
 <defs>
  <clipPath id="p5ee90c99e5">
   <rect height="300.31475" width="397.442062" x="108.362437" y="14.193"/>
  </clipPath>
 </defs>
</svg>
