<?xml version="1.0" encoding="utf-8" standalone="no"?>
<!DOCTYPE svg PUBLIC "-//W3C//DTD SVG 1.1//EN"
  "http://www.w3.org/Graphics/SVG/1.1/DTD/svg11.dtd">
<!-- Created with matplotlib (http://matplotlib.org/) -->
<svg height="447pt" version="1.1" viewBox="0 0 677 447" width="677pt" xmlns="http://www.w3.org/2000/svg" xmlns:xlink="http://www.w3.org/1999/xlink">
 <defs>
  <style type="text/css">
*{stroke-linecap:butt;stroke-linejoin:round;}
  </style>
 </defs>
 <g id="figure_1">
  <g id="patch_1">
   <path d="M 0 447.12 
L 677.52 447.12 
L 677.52 0 
L 0 0 
z
" style="fill:#ffffff;"/>
  </g>
  <g id="axes_1">
   <g id="patch_2">
    <path d="M 84.69 397.9368 
L 609.768 397.9368 
L 609.768 53.6544 
L 84.69 53.6544 
z
" style="fill:#ffffff;"/>
   </g>
   <g id="matplotlib.axis_1">
    <g id="xtick_1">
     <g id="line2d_1">
      <path clip-path="url(#p82b6e8ac6a)" d="M 150.850664 397.9368 
L 150.850664 53.6544 
" style="fill:none;stroke:#cccccc;stroke-linecap:round;stroke-width:0.8;"/>
     </g>
     <g id="line2d_2"/>
     <g id="text_1">
      <!-- 100 -->
      <defs>
       <path d="M 37.25 0 
L 28.46875 0 
L 28.46875 56 
Q 25.296875 52.984375 20.140625 49.953125 
Q 14.984375 46.921875 10.890625 45.40625 
L 10.890625 53.90625 
Q 18.265625 57.375 23.78125 62.296875 
Q 29.296875 67.234375 31.59375 71.875 
L 37.25 71.875 
z
" id="ArialMT-31"/>
       <path d="M 4.15625 35.296875 
Q 4.15625 48 6.765625 55.734375 
Q 9.375 63.484375 14.515625 67.671875 
Q 19.671875 71.875 27.484375 71.875 
Q 33.25 71.875 37.59375 69.546875 
Q 41.9375 67.234375 44.765625 62.859375 
Q 47.609375 58.5 49.21875 52.21875 
Q 50.828125 45.953125 50.828125 35.296875 
Q 50.828125 22.703125 48.234375 14.96875 
Q 45.65625 7.234375 40.5 3 
Q 35.359375 -1.21875 27.484375 -1.21875 
Q 17.140625 -1.21875 11.234375 6.203125 
Q 4.15625 15.140625 4.15625 35.296875 
z
M 13.1875 35.296875 
Q 13.1875 17.671875 17.3125 11.828125 
Q 21.4375 6 27.484375 6 
Q 33.546875 6 37.671875 11.859375 
Q 41.796875 17.71875 41.796875 35.296875 
Q 41.796875 52.984375 37.671875 58.78125 
Q 33.546875 64.59375 27.390625 64.59375 
Q 21.34375 64.59375 17.71875 59.46875 
Q 13.1875 52.9375 13.1875 35.296875 
z
" id="ArialMT-30"/>
      </defs>
      <g style="fill:#262626;" transform="translate(142.509258 408.594613)scale(0.1 -0.1)">
       <use xlink:href="#ArialMT-31"/>
       <use x="55.615234" xlink:href="#ArialMT-30"/>
       <use x="111.230469" xlink:href="#ArialMT-30"/>
      </g>
     </g>
    </g>
    <g id="xtick_2">
     <g id="line2d_3">
      <path clip-path="url(#p82b6e8ac6a)" d="M 227.736069 397.9368 
L 227.736069 53.6544 
" style="fill:none;stroke:#cccccc;stroke-linecap:round;stroke-width:0.8;"/>
     </g>
     <g id="line2d_4"/>
     <g id="text_2">
      <!-- 200 -->
      <defs>
       <path d="M 50.34375 8.453125 
L 50.34375 0 
L 3.03125 0 
Q 2.9375 3.171875 4.046875 6.109375 
Q 5.859375 10.9375 9.828125 15.625 
Q 13.8125 20.3125 21.34375 26.46875 
Q 33.015625 36.03125 37.109375 41.625 
Q 41.21875 47.21875 41.21875 52.203125 
Q 41.21875 57.421875 37.46875 61 
Q 33.734375 64.59375 27.734375 64.59375 
Q 21.390625 64.59375 17.578125 60.78125 
Q 13.765625 56.984375 13.71875 50.25 
L 4.6875 51.171875 
Q 5.609375 61.28125 11.65625 66.578125 
Q 17.71875 71.875 27.9375 71.875 
Q 38.234375 71.875 44.234375 66.15625 
Q 50.25 60.453125 50.25 52 
Q 50.25 47.703125 48.484375 43.546875 
Q 46.734375 39.40625 42.65625 34.8125 
Q 38.578125 30.21875 29.109375 22.21875 
Q 21.1875 15.578125 18.9375 13.203125 
Q 16.703125 10.84375 15.234375 8.453125 
z
" id="ArialMT-32"/>
      </defs>
      <g style="fill:#262626;" transform="translate(219.394663 408.594613)scale(0.1 -0.1)">
       <use xlink:href="#ArialMT-32"/>
       <use x="55.615234" xlink:href="#ArialMT-30"/>
       <use x="111.230469" xlink:href="#ArialMT-30"/>
      </g>
     </g>
    </g>
    <g id="xtick_3">
     <g id="line2d_5">
      <path clip-path="url(#p82b6e8ac6a)" d="M 304.621474 397.9368 
L 304.621474 53.6544 
" style="fill:none;stroke:#cccccc;stroke-linecap:round;stroke-width:0.8;"/>
     </g>
     <g id="line2d_6"/>
     <g id="text_3">
      <!-- 300 -->
      <defs>
       <path d="M 4.203125 18.890625 
L 12.984375 20.0625 
Q 14.5 12.59375 18.140625 9.296875 
Q 21.78125 6 27 6 
Q 33.203125 6 37.46875 10.296875 
Q 41.75 14.59375 41.75 20.953125 
Q 41.75 27 37.796875 30.921875 
Q 33.84375 34.859375 27.734375 34.859375 
Q 25.25 34.859375 21.53125 33.890625 
L 22.515625 41.609375 
Q 23.390625 41.5 23.921875 41.5 
Q 29.546875 41.5 34.03125 44.421875 
Q 38.53125 47.359375 38.53125 53.46875 
Q 38.53125 58.296875 35.25 61.46875 
Q 31.984375 64.65625 26.8125 64.65625 
Q 21.6875 64.65625 18.265625 61.421875 
Q 14.84375 58.203125 13.875 51.765625 
L 5.078125 53.328125 
Q 6.6875 62.15625 12.390625 67.015625 
Q 18.109375 71.875 26.609375 71.875 
Q 32.46875 71.875 37.390625 69.359375 
Q 42.328125 66.84375 44.9375 62.5 
Q 47.5625 58.15625 47.5625 53.265625 
Q 47.5625 48.640625 45.0625 44.828125 
Q 42.578125 41.015625 37.703125 38.765625 
Q 44.046875 37.3125 47.5625 32.6875 
Q 51.078125 28.078125 51.078125 21.140625 
Q 51.078125 11.765625 44.234375 5.25 
Q 37.40625 -1.265625 26.953125 -1.265625 
Q 17.53125 -1.265625 11.296875 4.34375 
Q 5.078125 9.96875 4.203125 18.890625 
z
" id="ArialMT-33"/>
      </defs>
      <g style="fill:#262626;" transform="translate(296.280068 408.594613)scale(0.1 -0.1)">
       <use xlink:href="#ArialMT-33"/>
       <use x="55.615234" xlink:href="#ArialMT-30"/>
       <use x="111.230469" xlink:href="#ArialMT-30"/>
      </g>
     </g>
    </g>
    <g id="xtick_4">
     <g id="line2d_7">
      <path clip-path="url(#p82b6e8ac6a)" d="M 381.506879 397.9368 
L 381.506879 53.6544 
" style="fill:none;stroke:#cccccc;stroke-linecap:round;stroke-width:0.8;"/>
     </g>
     <g id="line2d_8"/>
     <g id="text_4">
      <!-- 400 -->
      <defs>
       <path d="M 32.328125 0 
L 32.328125 17.140625 
L 1.265625 17.140625 
L 1.265625 25.203125 
L 33.9375 71.578125 
L 41.109375 71.578125 
L 41.109375 25.203125 
L 50.78125 25.203125 
L 50.78125 17.140625 
L 41.109375 17.140625 
L 41.109375 0 
z
M 32.328125 25.203125 
L 32.328125 57.46875 
L 9.90625 25.203125 
z
" id="ArialMT-34"/>
      </defs>
      <g style="fill:#262626;" transform="translate(373.165473 408.594613)scale(0.1 -0.1)">
       <use xlink:href="#ArialMT-34"/>
       <use x="55.615234" xlink:href="#ArialMT-30"/>
       <use x="111.230469" xlink:href="#ArialMT-30"/>
      </g>
     </g>
    </g>
    <g id="xtick_5">
     <g id="line2d_9">
      <path clip-path="url(#p82b6e8ac6a)" d="M 458.392284 397.9368 
L 458.392284 53.6544 
" style="fill:none;stroke:#cccccc;stroke-linecap:round;stroke-width:0.8;"/>
     </g>
     <g id="line2d_10"/>
     <g id="text_5">
      <!-- 500 -->
      <defs>
       <path d="M 4.15625 18.75 
L 13.375 19.53125 
Q 14.40625 12.796875 18.140625 9.390625 
Q 21.875 6 27.15625 6 
Q 33.5 6 37.890625 10.78125 
Q 42.28125 15.578125 42.28125 23.484375 
Q 42.28125 31 38.0625 35.34375 
Q 33.84375 39.703125 27 39.703125 
Q 22.75 39.703125 19.328125 37.765625 
Q 15.921875 35.84375 13.96875 32.765625 
L 5.71875 33.84375 
L 12.640625 70.609375 
L 48.25 70.609375 
L 48.25 62.203125 
L 19.671875 62.203125 
L 15.828125 42.96875 
Q 22.265625 47.46875 29.34375 47.46875 
Q 38.71875 47.46875 45.15625 40.96875 
Q 51.609375 34.46875 51.609375 24.265625 
Q 51.609375 14.546875 45.953125 7.46875 
Q 39.0625 -1.21875 27.15625 -1.21875 
Q 17.390625 -1.21875 11.203125 4.25 
Q 5.03125 9.71875 4.15625 18.75 
z
" id="ArialMT-35"/>
      </defs>
      <g style="fill:#262626;" transform="translate(450.050877 408.594613)scale(0.1 -0.1)">
       <use xlink:href="#ArialMT-35"/>
       <use x="55.615234" xlink:href="#ArialMT-30"/>
       <use x="111.230469" xlink:href="#ArialMT-30"/>
      </g>
     </g>
    </g>
    <g id="xtick_6">
     <g id="line2d_11">
      <path clip-path="url(#p82b6e8ac6a)" d="M 535.277689 397.9368 
L 535.277689 53.6544 
" style="fill:none;stroke:#cccccc;stroke-linecap:round;stroke-width:0.8;"/>
     </g>
     <g id="line2d_12"/>
     <g id="text_6">
      <!-- 600 -->
      <defs>
       <path d="M 49.75 54.046875 
L 41.015625 53.375 
Q 39.84375 58.546875 37.703125 60.890625 
Q 34.125 64.65625 28.90625 64.65625 
Q 24.703125 64.65625 21.53125 62.3125 
Q 17.390625 59.28125 14.984375 53.46875 
Q 12.59375 47.65625 12.5 36.921875 
Q 15.671875 41.75 20.265625 44.09375 
Q 24.859375 46.4375 29.890625 46.4375 
Q 38.671875 46.4375 44.84375 39.96875 
Q 51.03125 33.5 51.03125 23.25 
Q 51.03125 16.5 48.125 10.71875 
Q 45.21875 4.9375 40.140625 1.859375 
Q 35.0625 -1.21875 28.609375 -1.21875 
Q 17.625 -1.21875 10.6875 6.859375 
Q 3.765625 14.9375 3.765625 33.5 
Q 3.765625 54.25 11.421875 63.671875 
Q 18.109375 71.875 29.4375 71.875 
Q 37.890625 71.875 43.28125 67.140625 
Q 48.6875 62.40625 49.75 54.046875 
z
M 13.875 23.1875 
Q 13.875 18.65625 15.796875 14.5 
Q 17.71875 10.359375 21.1875 8.171875 
Q 24.65625 6 28.46875 6 
Q 34.03125 6 38.03125 10.484375 
Q 42.046875 14.984375 42.046875 22.703125 
Q 42.046875 30.125 38.078125 34.390625 
Q 34.125 38.671875 28.125 38.671875 
Q 22.171875 38.671875 18.015625 34.390625 
Q 13.875 30.125 13.875 23.1875 
z
" id="ArialMT-36"/>
      </defs>
      <g style="fill:#262626;" transform="translate(526.936282 408.594613)scale(0.1 -0.1)">
       <use xlink:href="#ArialMT-36"/>
       <use x="55.615234" xlink:href="#ArialMT-30"/>
       <use x="111.230469" xlink:href="#ArialMT-30"/>
      </g>
     </g>
    </g>
    <g id="text_7">
     <!-- jps -->
     <defs>
      <path d="M 6.546875 61.375 
L 6.546875 71.578125 
L 15.328125 71.578125 
L 15.328125 61.375 
z
M -4.59375 -20.125 
L -2.9375 -12.640625 
Q -0.296875 -13.328125 1.21875 -13.328125 
Q 3.90625 -13.328125 5.21875 -11.546875 
Q 6.546875 -9.765625 6.546875 -2.640625 
L 6.546875 51.859375 
L 15.328125 51.859375 
L 15.328125 -2.828125 
Q 15.328125 -12.40625 12.84375 -16.15625 
Q 9.671875 -21.046875 2.296875 -21.046875 
Q -1.265625 -21.046875 -4.59375 -20.125 
z
" id="ArialMT-6a"/>
      <path d="M 6.59375 -19.875 
L 6.59375 51.859375 
L 14.59375 51.859375 
L 14.59375 45.125 
Q 17.4375 49.078125 21 51.046875 
Q 24.5625 53.03125 29.640625 53.03125 
Q 36.28125 53.03125 41.359375 49.609375 
Q 46.4375 46.1875 49.015625 39.953125 
Q 51.609375 33.734375 51.609375 26.3125 
Q 51.609375 18.359375 48.75 11.984375 
Q 45.90625 5.609375 40.453125 2.21875 
Q 35.015625 -1.171875 29 -1.171875 
Q 24.609375 -1.171875 21.109375 0.6875 
Q 17.625 2.546875 15.375 5.375 
L 15.375 -19.875 
z
M 14.546875 25.640625 
Q 14.546875 15.625 18.59375 10.84375 
Q 22.65625 6.0625 28.421875 6.0625 
Q 34.28125 6.0625 38.453125 11.015625 
Q 42.625 15.96875 42.625 26.375 
Q 42.625 36.28125 38.546875 41.203125 
Q 34.46875 46.140625 28.8125 46.140625 
Q 23.1875 46.140625 18.859375 40.890625 
Q 14.546875 35.640625 14.546875 25.640625 
z
" id="ArialMT-70"/>
      <path d="M 3.078125 15.484375 
L 11.765625 16.84375 
Q 12.5 11.625 15.84375 8.84375 
Q 19.1875 6.0625 25.203125 6.0625 
Q 31.25 6.0625 34.171875 8.515625 
Q 37.109375 10.984375 37.109375 14.3125 
Q 37.109375 17.28125 34.515625 19 
Q 32.71875 20.171875 25.53125 21.96875 
Q 15.875 24.421875 12.140625 26.203125 
Q 8.40625 27.984375 6.46875 31.125 
Q 4.546875 34.28125 4.546875 38.09375 
Q 4.546875 41.546875 6.125 44.5 
Q 7.71875 47.46875 10.453125 49.421875 
Q 12.5 50.921875 16.03125 51.96875 
Q 19.578125 53.03125 23.640625 53.03125 
Q 29.734375 53.03125 34.34375 51.265625 
Q 38.96875 49.515625 41.15625 46.5 
Q 43.359375 43.5 44.1875 38.484375 
L 35.59375 37.3125 
Q 35.015625 41.3125 32.203125 43.546875 
Q 29.390625 45.796875 24.265625 45.796875 
Q 18.21875 45.796875 15.625 43.796875 
Q 13.03125 41.796875 13.03125 39.109375 
Q 13.03125 37.40625 14.109375 36.03125 
Q 15.1875 34.625 17.484375 33.6875 
Q 18.796875 33.203125 25.25 31.453125 
Q 34.578125 28.953125 38.25 27.359375 
Q 41.9375 25.78125 44.03125 22.75 
Q 46.140625 19.734375 46.140625 15.234375 
Q 46.140625 10.84375 43.578125 6.953125 
Q 41.015625 3.078125 36.171875 0.953125 
Q 31.34375 -1.171875 25.25 -1.171875 
Q 15.140625 -1.171875 9.84375 3.03125 
Q 4.546875 7.234375 3.078125 15.484375 
z
" id="ArialMT-73"/>
     </defs>
     <g style="fill:#262626;" transform="translate(340.837594 421.739925)scale(0.1 -0.1)">
      <use xlink:href="#ArialMT-6a"/>
      <use x="22.216797" xlink:href="#ArialMT-70"/>
      <use x="77.832031" xlink:href="#ArialMT-73"/>
     </g>
    </g>
   </g>
   <g id="matplotlib.axis_2">
    <g id="ytick_1">
     <g id="line2d_13"/>
     <g id="text_8">
      <!-- DBP-mysql-0-0-5 -->
      <defs>
       <path d="M 7.71875 0 
L 7.71875 71.578125 
L 32.375 71.578125 
Q 40.71875 71.578125 45.125 70.5625 
Q 51.265625 69.140625 55.609375 65.4375 
Q 61.28125 60.640625 64.078125 53.1875 
Q 66.890625 45.75 66.890625 36.1875 
Q 66.890625 28.03125 64.984375 21.734375 
Q 63.09375 15.4375 60.109375 11.296875 
Q 57.125 7.171875 53.578125 4.796875 
Q 50.046875 2.4375 45.046875 1.21875 
Q 40.046875 0 33.546875 0 
z
M 17.1875 8.453125 
L 32.46875 8.453125 
Q 39.546875 8.453125 43.578125 9.765625 
Q 47.609375 11.078125 50 13.484375 
Q 53.375 16.84375 55.25 22.53125 
Q 57.125 28.21875 57.125 36.328125 
Q 57.125 47.5625 53.4375 53.59375 
Q 49.75 59.625 44.484375 61.671875 
Q 40.671875 63.140625 32.234375 63.140625 
L 17.1875 63.140625 
z
" id="ArialMT-44"/>
       <path d="M 7.328125 0 
L 7.328125 71.578125 
L 34.1875 71.578125 
Q 42.390625 71.578125 47.34375 69.40625 
Q 52.296875 67.234375 55.09375 62.71875 
Q 57.90625 58.203125 57.90625 53.265625 
Q 57.90625 48.6875 55.421875 44.625 
Q 52.9375 40.578125 47.90625 38.09375 
Q 54.390625 36.1875 57.875 31.59375 
Q 61.375 27 61.375 20.75 
Q 61.375 15.71875 59.25 11.390625 
Q 57.125 7.078125 54 4.734375 
Q 50.875 2.390625 46.15625 1.1875 
Q 41.453125 0 34.625 0 
z
M 16.796875 41.5 
L 32.28125 41.5 
Q 38.578125 41.5 41.3125 42.328125 
Q 44.921875 43.40625 46.75 45.890625 
Q 48.578125 48.390625 48.578125 52.15625 
Q 48.578125 55.71875 46.875 58.421875 
Q 45.171875 61.140625 41.984375 62.140625 
Q 38.8125 63.140625 31.109375 63.140625 
L 16.796875 63.140625 
z
M 16.796875 8.453125 
L 34.625 8.453125 
Q 39.203125 8.453125 41.0625 8.796875 
Q 44.34375 9.375 46.53125 10.734375 
Q 48.734375 12.109375 50.140625 14.71875 
Q 51.5625 17.328125 51.5625 20.75 
Q 51.5625 24.75 49.515625 27.703125 
Q 47.46875 30.671875 43.828125 31.859375 
Q 40.1875 33.0625 33.34375 33.0625 
L 16.796875 33.0625 
z
" id="ArialMT-42"/>
       <path d="M 7.71875 0 
L 7.71875 71.578125 
L 34.71875 71.578125 
Q 41.84375 71.578125 45.609375 70.90625 
Q 50.875 70.015625 54.4375 67.546875 
Q 58.015625 65.09375 60.1875 60.640625 
Q 62.359375 56.203125 62.359375 50.875 
Q 62.359375 41.75 56.546875 35.421875 
Q 50.734375 29.109375 35.546875 29.109375 
L 17.1875 29.109375 
L 17.1875 0 
z
M 17.1875 37.546875 
L 35.6875 37.546875 
Q 44.875 37.546875 48.734375 40.96875 
Q 52.59375 44.390625 52.59375 50.59375 
Q 52.59375 55.078125 50.3125 58.265625 
Q 48.046875 61.46875 44.34375 62.5 
Q 41.9375 63.140625 35.5 63.140625 
L 17.1875 63.140625 
z
" id="ArialMT-50"/>
       <path d="M 3.171875 21.484375 
L 3.171875 30.328125 
L 30.171875 30.328125 
L 30.171875 21.484375 
z
" id="ArialMT-2d"/>
       <path d="M 6.59375 0 
L 6.59375 51.859375 
L 14.453125 51.859375 
L 14.453125 44.578125 
Q 16.890625 48.390625 20.9375 50.703125 
Q 25 53.03125 30.171875 53.03125 
Q 35.9375 53.03125 39.625 50.640625 
Q 43.3125 48.25 44.828125 43.953125 
Q 50.984375 53.03125 60.84375 53.03125 
Q 68.5625 53.03125 72.703125 48.75 
Q 76.859375 44.484375 76.859375 35.59375 
L 76.859375 0 
L 68.109375 0 
L 68.109375 32.671875 
Q 68.109375 37.9375 67.25 40.25 
Q 66.40625 42.578125 64.15625 43.984375 
Q 61.921875 45.40625 58.890625 45.40625 
Q 53.421875 45.40625 49.796875 41.765625 
Q 46.1875 38.140625 46.1875 30.125 
L 46.1875 0 
L 37.40625 0 
L 37.40625 33.6875 
Q 37.40625 39.546875 35.25 42.46875 
Q 33.109375 45.40625 28.21875 45.40625 
Q 24.515625 45.40625 21.359375 43.453125 
Q 18.21875 41.5 16.796875 37.734375 
Q 15.375 33.984375 15.375 26.90625 
L 15.375 0 
z
" id="ArialMT-6d"/>
       <path d="M 6.203125 -19.96875 
L 5.21875 -11.71875 
Q 8.109375 -12.5 10.25 -12.5 
Q 13.1875 -12.5 14.9375 -11.515625 
Q 16.703125 -10.546875 17.828125 -8.796875 
Q 18.65625 -7.46875 20.515625 -2.25 
Q 20.75 -1.515625 21.296875 -0.09375 
L 1.609375 51.859375 
L 11.078125 51.859375 
L 21.875 21.828125 
Q 23.96875 16.109375 25.640625 9.8125 
Q 27.15625 15.875 29.25 21.625 
L 40.328125 51.859375 
L 49.125 51.859375 
L 29.390625 -0.875 
Q 26.21875 -9.421875 24.46875 -12.640625 
Q 22.125 -17 19.09375 -19.015625 
Q 16.0625 -21.046875 11.859375 -21.046875 
Q 9.328125 -21.046875 6.203125 -19.96875 
z
" id="ArialMT-79"/>
       <path d="M 39.65625 -19.875 
L 39.65625 5.515625 
Q 37.59375 2.640625 33.90625 0.734375 
Q 30.21875 -1.171875 26.078125 -1.171875 
Q 16.84375 -1.171875 10.171875 6.203125 
Q 3.515625 13.578125 3.515625 26.421875 
Q 3.515625 34.234375 6.21875 40.421875 
Q 8.9375 46.625 14.078125 49.828125 
Q 19.234375 53.03125 25.390625 53.03125 
Q 35.015625 53.03125 40.53125 44.921875 
L 40.53125 51.859375 
L 48.4375 51.859375 
L 48.4375 -19.875 
z
M 12.546875 26.078125 
Q 12.546875 16.0625 16.75 11.0625 
Q 20.953125 6.0625 26.8125 6.0625 
Q 32.421875 6.0625 36.46875 10.8125 
Q 40.53125 15.578125 40.53125 25.296875 
Q 40.53125 35.640625 36.25 40.859375 
Q 31.984375 46.09375 26.21875 46.09375 
Q 20.515625 46.09375 16.53125 41.234375 
Q 12.546875 36.375 12.546875 26.078125 
z
" id="ArialMT-71"/>
       <path d="M 6.390625 0 
L 6.390625 71.578125 
L 15.1875 71.578125 
L 15.1875 0 
z
" id="ArialMT-6c"/>
      </defs>
      <g style="fill:#262626;" transform="translate(4.513437 85.93835)scale(0.1 -0.1)">
       <use xlink:href="#ArialMT-44"/>
       <use x="72.216797" xlink:href="#ArialMT-42"/>
       <use x="138.916016" xlink:href="#ArialMT-50"/>
       <use x="205.615234" xlink:href="#ArialMT-2d"/>
       <use x="238.916016" xlink:href="#ArialMT-6d"/>
       <use x="322.216797" xlink:href="#ArialMT-79"/>
       <use x="372.216797" xlink:href="#ArialMT-73"/>
       <use x="422.216797" xlink:href="#ArialMT-71"/>
       <use x="477.832031" xlink:href="#ArialMT-6c"/>
       <use x="500.048828" xlink:href="#ArialMT-2d"/>
       <use x="533.349609" xlink:href="#ArialMT-30"/>
       <use x="588.964844" xlink:href="#ArialMT-2d"/>
       <use x="622.265625" xlink:href="#ArialMT-30"/>
       <use x="677.880859" xlink:href="#ArialMT-2d"/>
       <use x="711.181641" xlink:href="#ArialMT-35"/>
      </g>
     </g>
    </g>
    <g id="ytick_2">
     <g id="line2d_14"/>
     <g id="text_9">
      <!-- DBO-mysql-0 -->
      <defs>
       <path d="M 4.828125 34.859375 
Q 4.828125 52.6875 14.390625 62.765625 
Q 23.96875 72.859375 39.109375 72.859375 
Q 49.03125 72.859375 56.984375 68.109375 
Q 64.9375 63.375 69.109375 54.90625 
Q 73.296875 46.4375 73.296875 35.6875 
Q 73.296875 24.8125 68.890625 16.21875 
Q 64.5 7.625 56.4375 3.203125 
Q 48.390625 -1.21875 39.0625 -1.21875 
Q 28.953125 -1.21875 20.984375 3.65625 
Q 13.03125 8.546875 8.921875 16.984375 
Q 4.828125 25.4375 4.828125 34.859375 
z
M 14.59375 34.71875 
Q 14.59375 21.78125 21.546875 14.328125 
Q 28.515625 6.890625 39.015625 6.890625 
Q 49.703125 6.890625 56.609375 14.40625 
Q 63.53125 21.921875 63.53125 35.75 
Q 63.53125 44.484375 60.578125 51 
Q 57.625 57.515625 51.921875 61.109375 
Q 46.234375 64.703125 39.15625 64.703125 
Q 29.109375 64.703125 21.84375 57.78125 
Q 14.59375 50.875 14.59375 34.71875 
z
" id="ArialMT-4f"/>
      </defs>
      <g style="fill:#262626;" transform="translate(21.186875 143.367969)scale(0.1 -0.1)">
       <use xlink:href="#ArialMT-44"/>
       <use x="72.216797" xlink:href="#ArialMT-42"/>
       <use x="138.916016" xlink:href="#ArialMT-4f"/>
       <use x="216.699219" xlink:href="#ArialMT-2d"/>
       <use x="250" xlink:href="#ArialMT-6d"/>
       <use x="333.300781" xlink:href="#ArialMT-79"/>
       <use x="383.300781" xlink:href="#ArialMT-73"/>
       <use x="433.300781" xlink:href="#ArialMT-71"/>
       <use x="488.916016" xlink:href="#ArialMT-6c"/>
       <use x="511.132812" xlink:href="#ArialMT-2d"/>
       <use x="544.433594" xlink:href="#ArialMT-30"/>
      </g>
     </g>
    </g>
    <g id="ytick_3">
     <g id="line2d_15"/>
     <g id="text_10">
      <!-- DBO-mysql-1 -->
      <g style="fill:#262626;" transform="translate(21.186875 200.748369)scale(0.1 -0.1)">
       <use xlink:href="#ArialMT-44"/>
       <use x="72.216797" xlink:href="#ArialMT-42"/>
       <use x="138.916016" xlink:href="#ArialMT-4f"/>
       <use x="216.699219" xlink:href="#ArialMT-2d"/>
       <use x="250" xlink:href="#ArialMT-6d"/>
       <use x="333.300781" xlink:href="#ArialMT-79"/>
       <use x="383.300781" xlink:href="#ArialMT-73"/>
       <use x="433.300781" xlink:href="#ArialMT-71"/>
       <use x="488.916016" xlink:href="#ArialMT-6c"/>
       <use x="511.132812" xlink:href="#ArialMT-2d"/>
       <use x="544.433594" xlink:href="#ArialMT-31"/>
      </g>
     </g>
    </g>
    <g id="ytick_4">
     <g id="line2d_16"/>
     <g id="text_11">
      <!-- DBP-pgsql-0-0-5 -->
      <defs>
       <path d="M 4.984375 -4.296875 
L 13.53125 -5.5625 
Q 14.0625 -9.515625 16.5 -11.328125 
Q 19.78125 -13.765625 25.4375 -13.765625 
Q 31.546875 -13.765625 34.859375 -11.328125 
Q 38.1875 -8.890625 39.359375 -4.5 
Q 40.046875 -1.8125 39.984375 6.78125 
Q 34.234375 0 25.640625 0 
Q 14.9375 0 9.078125 7.71875 
Q 3.21875 15.4375 3.21875 26.21875 
Q 3.21875 33.640625 5.90625 39.90625 
Q 8.59375 46.1875 13.6875 49.609375 
Q 18.796875 53.03125 25.6875 53.03125 
Q 34.859375 53.03125 40.828125 45.609375 
L 40.828125 51.859375 
L 48.921875 51.859375 
L 48.921875 7.03125 
Q 48.921875 -5.078125 46.453125 -10.125 
Q 44 -15.1875 38.640625 -18.109375 
Q 33.296875 -21.046875 25.484375 -21.046875 
Q 16.21875 -21.046875 10.5 -16.875 
Q 4.78125 -12.703125 4.984375 -4.296875 
z
M 12.25 26.859375 
Q 12.25 16.65625 16.296875 11.96875 
Q 20.359375 7.28125 26.46875 7.28125 
Q 32.515625 7.28125 36.609375 11.9375 
Q 40.71875 16.609375 40.71875 26.5625 
Q 40.71875 36.078125 36.5 40.90625 
Q 32.28125 45.75 26.3125 45.75 
Q 20.453125 45.75 16.34375 40.984375 
Q 12.25 36.234375 12.25 26.859375 
z
" id="ArialMT-67"/>
      </defs>
      <g style="fill:#262626;" transform="translate(6.72125 258.07955)scale(0.1 -0.1)">
       <use xlink:href="#ArialMT-44"/>
       <use x="72.216797" xlink:href="#ArialMT-42"/>
       <use x="138.916016" xlink:href="#ArialMT-50"/>
       <use x="205.615234" xlink:href="#ArialMT-2d"/>
       <use x="238.916016" xlink:href="#ArialMT-70"/>
       <use x="294.53125" xlink:href="#ArialMT-67"/>
       <use x="350.146484" xlink:href="#ArialMT-73"/>
       <use x="400.146484" xlink:href="#ArialMT-71"/>
       <use x="455.761719" xlink:href="#ArialMT-6c"/>
       <use x="477.978516" xlink:href="#ArialMT-2d"/>
       <use x="511.279297" xlink:href="#ArialMT-30"/>
       <use x="566.894531" xlink:href="#ArialMT-2d"/>
       <use x="600.195312" xlink:href="#ArialMT-30"/>
       <use x="655.810547" xlink:href="#ArialMT-2d"/>
       <use x="689.111328" xlink:href="#ArialMT-35"/>
      </g>
     </g>
    </g>
    <g id="ytick_5">
     <g id="line2d_17"/>
     <g id="text_12">
      <!-- DBO-pgsql-0 -->
      <g style="fill:#262626;" transform="translate(23.394687 315.509169)scale(0.1 -0.1)">
       <use xlink:href="#ArialMT-44"/>
       <use x="72.216797" xlink:href="#ArialMT-42"/>
       <use x="138.916016" xlink:href="#ArialMT-4f"/>
       <use x="216.699219" xlink:href="#ArialMT-2d"/>
       <use x="250" xlink:href="#ArialMT-70"/>
       <use x="305.615234" xlink:href="#ArialMT-67"/>
       <use x="361.230469" xlink:href="#ArialMT-73"/>
       <use x="411.230469" xlink:href="#ArialMT-71"/>
       <use x="466.845703" xlink:href="#ArialMT-6c"/>
       <use x="489.0625" xlink:href="#ArialMT-2d"/>
       <use x="522.363281" xlink:href="#ArialMT-30"/>
      </g>
     </g>
    </g>
    <g id="ytick_6">
     <g id="line2d_18"/>
     <g id="text_13">
      <!-- DBO-pgsql-1 -->
      <g style="fill:#262626;" transform="translate(23.394687 372.889569)scale(0.1 -0.1)">
       <use xlink:href="#ArialMT-44"/>
       <use x="72.216797" xlink:href="#ArialMT-42"/>
       <use x="138.916016" xlink:href="#ArialMT-4f"/>
       <use x="216.699219" xlink:href="#ArialMT-2d"/>
       <use x="250" xlink:href="#ArialMT-70"/>
       <use x="305.615234" xlink:href="#ArialMT-67"/>
       <use x="361.230469" xlink:href="#ArialMT-73"/>
       <use x="411.230469" xlink:href="#ArialMT-71"/>
       <use x="466.845703" xlink:href="#ArialMT-6c"/>
       <use x="489.0625" xlink:href="#ArialMT-2d"/>
       <use x="522.363281" xlink:href="#ArialMT-31"/>
      </g>
     </g>
    </g>
    <g id="text_14">
     <!-- method -->
     <defs>
      <path d="M 42.09375 16.703125 
L 51.171875 15.578125 
Q 49.03125 7.625 43.21875 3.21875 
Q 37.40625 -1.171875 28.375 -1.171875 
Q 17 -1.171875 10.328125 5.828125 
Q 3.65625 12.84375 3.65625 25.484375 
Q 3.65625 38.578125 10.390625 45.796875 
Q 17.140625 53.03125 27.875 53.03125 
Q 38.28125 53.03125 44.875 45.953125 
Q 51.46875 38.875 51.46875 26.03125 
Q 51.46875 25.25 51.421875 23.6875 
L 12.75 23.6875 
Q 13.234375 15.140625 17.578125 10.59375 
Q 21.921875 6.0625 28.421875 6.0625 
Q 33.25 6.0625 36.671875 8.59375 
Q 40.09375 11.140625 42.09375 16.703125 
z
M 13.234375 30.90625 
L 42.1875 30.90625 
Q 41.609375 37.453125 38.875 40.71875 
Q 34.671875 45.796875 27.984375 45.796875 
Q 21.921875 45.796875 17.796875 41.75 
Q 13.671875 37.703125 13.234375 30.90625 
z
" id="ArialMT-65"/>
      <path d="M 25.78125 7.859375 
L 27.046875 0.09375 
Q 23.34375 -0.6875 20.40625 -0.6875 
Q 15.625 -0.6875 12.984375 0.828125 
Q 10.359375 2.34375 9.28125 4.8125 
Q 8.203125 7.28125 8.203125 15.1875 
L 8.203125 45.015625 
L 1.765625 45.015625 
L 1.765625 51.859375 
L 8.203125 51.859375 
L 8.203125 64.703125 
L 16.9375 69.96875 
L 16.9375 51.859375 
L 25.78125 51.859375 
L 25.78125 45.015625 
L 16.9375 45.015625 
L 16.9375 14.703125 
Q 16.9375 10.9375 17.40625 9.859375 
Q 17.875 8.796875 18.921875 8.15625 
Q 19.96875 7.515625 21.921875 7.515625 
Q 23.390625 7.515625 25.78125 7.859375 
z
" id="ArialMT-74"/>
      <path d="M 6.59375 0 
L 6.59375 71.578125 
L 15.375 71.578125 
L 15.375 45.90625 
Q 21.53125 53.03125 30.90625 53.03125 
Q 36.671875 53.03125 40.921875 50.75 
Q 45.171875 48.484375 47 44.484375 
Q 48.828125 40.484375 48.828125 32.859375 
L 48.828125 0 
L 40.046875 0 
L 40.046875 32.859375 
Q 40.046875 39.453125 37.1875 42.453125 
Q 34.328125 45.453125 29.109375 45.453125 
Q 25.203125 45.453125 21.75 43.421875 
Q 18.3125 41.40625 16.84375 37.9375 
Q 15.375 34.46875 15.375 28.375 
L 15.375 0 
z
" id="ArialMT-68"/>
      <path d="M 3.328125 25.921875 
Q 3.328125 40.328125 11.328125 47.265625 
Q 18.015625 53.03125 27.640625 53.03125 
Q 38.328125 53.03125 45.109375 46.015625 
Q 51.90625 39.015625 51.90625 26.65625 
Q 51.90625 16.65625 48.90625 10.90625 
Q 45.90625 5.171875 40.15625 2 
Q 34.421875 -1.171875 27.640625 -1.171875 
Q 16.75 -1.171875 10.03125 5.8125 
Q 3.328125 12.796875 3.328125 25.921875 
z
M 12.359375 25.921875 
Q 12.359375 15.96875 16.703125 11.015625 
Q 21.046875 6.0625 27.640625 6.0625 
Q 34.1875 6.0625 38.53125 11.03125 
Q 42.875 16.015625 42.875 26.21875 
Q 42.875 35.84375 38.5 40.796875 
Q 34.125 45.75 27.640625 45.75 
Q 21.046875 45.75 16.703125 40.8125 
Q 12.359375 35.890625 12.359375 25.921875 
z
" id="ArialMT-6f"/>
      <path d="M 40.234375 0 
L 40.234375 6.546875 
Q 35.296875 -1.171875 25.734375 -1.171875 
Q 19.53125 -1.171875 14.328125 2.25 
Q 9.125 5.671875 6.265625 11.796875 
Q 3.421875 17.921875 3.421875 25.875 
Q 3.421875 33.640625 6 39.96875 
Q 8.59375 46.296875 13.765625 49.65625 
Q 18.953125 53.03125 25.34375 53.03125 
Q 30.03125 53.03125 33.6875 51.046875 
Q 37.359375 49.078125 39.65625 45.90625 
L 39.65625 71.578125 
L 48.390625 71.578125 
L 48.390625 0 
z
M 12.453125 25.875 
Q 12.453125 15.921875 16.640625 10.984375 
Q 20.84375 6.0625 26.5625 6.0625 
Q 32.328125 6.0625 36.34375 10.765625 
Q 40.375 15.484375 40.375 25.140625 
Q 40.375 35.796875 36.265625 40.765625 
Q 32.171875 45.75 26.171875 45.75 
Q 20.3125 45.75 16.375 40.96875 
Q 12.453125 36.1875 12.453125 25.875 
z
" id="ArialMT-64"/>
     </defs>
     <g style="fill:#262626;" transform="translate(-1.474063 242.471381)rotate(-90)scale(0.1 -0.1)">
      <use xlink:href="#ArialMT-6d"/>
      <use x="83.300781" xlink:href="#ArialMT-65"/>
      <use x="138.916016" xlink:href="#ArialMT-74"/>
      <use x="166.699219" xlink:href="#ArialMT-68"/>
      <use x="222.314453" xlink:href="#ArialMT-6f"/>
      <use x="277.929688" xlink:href="#ArialMT-64"/>
     </g>
    </g>
   </g>
   <g id="patch_3">
    <path clip-path="url(#p82b6e8ac6a)" d="M 183.093632 59.621962 
L 183.093632 82.115078 
L 240.452932 82.115078 
L 240.452932 59.621962 
L 183.093632 59.621962 
z
" style="fill:#3274a1;stroke:#3f3f3f;stroke-linejoin:miter;stroke-width:0.5;"/>
   </g>
   <g id="patch_4">
    <path clip-path="url(#p82b6e8ac6a)" d="M 415.208229 82.574122 
L 415.208229 105.067238 
L 429.029791 105.067238 
L 429.029791 82.574122 
L 415.208229 82.574122 
z
" style="fill:#e1812c;stroke:#3f3f3f;stroke-linejoin:miter;stroke-width:0.5;"/>
   </g>
   <g id="patch_5">
    <path clip-path="url(#p82b6e8ac6a)" d="M 142.922717 117.002362 
L 142.922717 139.495478 
L 144.424514 139.495478 
L 144.424514 117.002362 
L 142.922717 117.002362 
z
" style="fill:#3274a1;stroke:#3f3f3f;stroke-linejoin:miter;stroke-width:0.5;"/>
   </g>
   <g id="patch_6">
    <path clip-path="url(#p82b6e8ac6a)" d="M 369.273232 139.954522 
L 369.273232 162.447638 
L 375.047926 162.447638 
L 375.047926 139.954522 
L 369.273232 139.954522 
z
" style="fill:#e1812c;stroke:#3f3f3f;stroke-linejoin:miter;stroke-width:0.5;"/>
   </g>
   <g id="patch_7">
    <path clip-path="url(#p82b6e8ac6a)" d="M 232.718658 174.382762 
L 232.718658 196.875878 
L 237.352352 196.875878 
L 237.352352 174.382762 
L 232.718658 174.382762 
z
" style="fill:#3274a1;stroke:#3f3f3f;stroke-linejoin:miter;stroke-width:0.5;"/>
   </g>
   <g id="patch_8">
    <path clip-path="url(#p82b6e8ac6a)" d="M 569.247545 197.334922 
L 569.247545 219.828038 
L 569.331133 219.828038 
L 569.331133 197.334922 
L 569.247545 197.334922 
z
" style="fill:#e1812c;stroke:#3f3f3f;stroke-linejoin:miter;stroke-width:0.5;"/>
   </g>
   <g id="patch_9">
    <path clip-path="url(#p82b6e8ac6a)" d="M 237.349722 231.763162 
L 237.349722 254.256278 
L 244.132003 254.256278 
L 244.132003 231.763162 
L 237.349722 231.763162 
z
" style="fill:#3274a1;stroke:#3f3f3f;stroke-linejoin:miter;stroke-width:0.5;"/>
   </g>
   <g id="patch_10">
    <path clip-path="url(#p82b6e8ac6a)" d="M 181.948316 254.715322 
L 181.948316 277.208438 
L 387.385058 277.208438 
L 387.385058 254.715322 
L 181.948316 254.715322 
z
" style="fill:#e1812c;stroke:#3f3f3f;stroke-linejoin:miter;stroke-width:0.5;"/>
   </g>
   <g id="patch_11">
    <path clip-path="url(#p82b6e8ac6a)" d="M 115.930383 289.143562 
L 115.930383 311.636678 
L 116.163113 311.636678 
L 116.163113 289.143562 
L 115.930383 289.143562 
z
" style="fill:#3274a1;stroke:#3f3f3f;stroke-linejoin:miter;stroke-width:0.5;"/>
   </g>
   <g id="patch_12">
    <path clip-path="url(#p82b6e8ac6a)" d="M 219.196251 312.095722 
L 219.196251 334.588838 
L 220.239739 334.588838 
L 220.239739 312.095722 
L 219.196251 312.095722 
z
" style="fill:#e1812c;stroke:#3f3f3f;stroke-linejoin:miter;stroke-width:0.5;"/>
   </g>
   <g id="patch_13">
    <path clip-path="url(#p82b6e8ac6a)" d="M 240.877476 346.523962 
L 240.877476 369.017078 
L 244.63126 369.017078 
L 244.63126 346.523962 
L 240.877476 346.523962 
z
" style="fill:#3274a1;stroke:#3f3f3f;stroke-linejoin:miter;stroke-width:0.5;"/>
   </g>
   <g id="patch_14">
    <path clip-path="url(#p82b6e8ac6a)" d="M 470.331624 369.476122 
L 470.331624 391.969238 
L 489.05531 391.969238 
L 489.05531 369.476122 
L 470.331624 369.476122 
z
" style="fill:#e1812c;stroke:#3f3f3f;stroke-linejoin:miter;stroke-width:0.5;"/>
   </g>
   <g id="patch_15">
    <path clip-path="url(#p82b6e8ac6a)" d="M 73.96526 82.3446 
L 73.96526 82.3446 
L 73.96526 82.3446 
L 73.96526 82.3446 
z
" style="fill:#3274a1;stroke:#3f3f3f;stroke-linejoin:miter;stroke-width:0.25;"/>
   </g>
   <g id="patch_16">
    <path clip-path="url(#p82b6e8ac6a)" d="M 73.96526 82.3446 
L 73.96526 82.3446 
L 73.96526 82.3446 
L 73.96526 82.3446 
z
" style="fill:#e1812c;stroke:#3f3f3f;stroke-linejoin:miter;stroke-width:0.25;"/>
   </g>
   <g id="line2d_19">
    <path clip-path="url(#p82b6e8ac6a)" d="M 183.093632 70.86852 
L 178.446337 70.86852 
" style="fill:none;stroke:#3f3f3f;stroke-linecap:round;stroke-width:0.5;"/>
   </g>
   <g id="line2d_20">
    <path clip-path="url(#p82b6e8ac6a)" d="M 240.452932 70.86852 
L 246.532501 70.86852 
" style="fill:none;stroke:#3f3f3f;stroke-linecap:round;stroke-width:0.5;"/>
   </g>
   <g id="line2d_21">
    <path clip-path="url(#p82b6e8ac6a)" d="M 178.446337 65.245241 
L 178.446337 76.491799 
" style="fill:none;stroke:#3f3f3f;stroke-linecap:round;stroke-width:0.5;"/>
   </g>
   <g id="line2d_22">
    <path clip-path="url(#p82b6e8ac6a)" d="M 246.532501 65.245241 
L 246.532501 76.491799 
" style="fill:none;stroke:#3f3f3f;stroke-linecap:round;stroke-width:0.5;"/>
   </g>
   <g id="line2d_23"/>
   <g id="line2d_24">
    <path clip-path="url(#p82b6e8ac6a)" d="M 415.208229 93.82068 
L 415.128939 93.82068 
" style="fill:none;stroke:#3f3f3f;stroke-linecap:round;stroke-width:0.5;"/>
   </g>
   <g id="line2d_25">
    <path clip-path="url(#p82b6e8ac6a)" d="M 429.029791 93.82068 
L 431.09442 93.82068 
" style="fill:none;stroke:#3f3f3f;stroke-linecap:round;stroke-width:0.5;"/>
   </g>
   <g id="line2d_26">
    <path clip-path="url(#p82b6e8ac6a)" d="M 415.128939 88.197401 
L 415.128939 99.443959 
" style="fill:none;stroke:#3f3f3f;stroke-linecap:round;stroke-width:0.5;"/>
   </g>
   <g id="line2d_27">
    <path clip-path="url(#p82b6e8ac6a)" d="M 431.09442 88.197401 
L 431.09442 99.443959 
" style="fill:none;stroke:#3f3f3f;stroke-linecap:round;stroke-width:0.5;"/>
   </g>
   <g id="line2d_28"/>
   <g id="line2d_29">
    <path clip-path="url(#p82b6e8ac6a)" d="M 142.922717 128.24892 
L 141.009643 128.24892 
" style="fill:none;stroke:#3f3f3f;stroke-linecap:round;stroke-width:0.5;"/>
   </g>
   <g id="line2d_30">
    <path clip-path="url(#p82b6e8ac6a)" d="M 144.424514 128.24892 
L 146.414837 128.24892 
" style="fill:none;stroke:#3f3f3f;stroke-linecap:round;stroke-width:0.5;"/>
   </g>
   <g id="line2d_31">
    <path clip-path="url(#p82b6e8ac6a)" d="M 141.009643 122.625641 
L 141.009643 133.872199 
" style="fill:none;stroke:#3f3f3f;stroke-linecap:round;stroke-width:0.5;"/>
   </g>
   <g id="line2d_32">
    <path clip-path="url(#p82b6e8ac6a)" d="M 146.414837 122.625641 
L 146.414837 133.872199 
" style="fill:none;stroke:#3f3f3f;stroke-linecap:round;stroke-width:0.5;"/>
   </g>
   <g id="line2d_33">
    <defs>
     <path d="M -0 3.535534 
L 2.12132 0 
L -0 -3.535534 
L -2.12132 -0 
z
" id="mf5aa43144a" style="stroke:#3f3f3f;stroke-linejoin:miter;"/>
    </defs>
    <g clip-path="url(#p82b6e8ac6a)">
     <use style="fill:#3f3f3f;stroke:#3f3f3f;stroke-linejoin:miter;" x="139.318629" xlink:href="#mf5aa43144a" y="128.24892"/>
    </g>
   </g>
   <g id="line2d_34">
    <path clip-path="url(#p82b6e8ac6a)" d="M 369.273232 151.20108 
L 363.731757 151.20108 
" style="fill:none;stroke:#3f3f3f;stroke-linecap:round;stroke-width:0.5;"/>
   </g>
   <g id="line2d_35">
    <path clip-path="url(#p82b6e8ac6a)" d="M 375.047926 151.20108 
L 375.127006 151.20108 
" style="fill:none;stroke:#3f3f3f;stroke-linecap:round;stroke-width:0.5;"/>
   </g>
   <g id="line2d_36">
    <path clip-path="url(#p82b6e8ac6a)" d="M 363.731757 145.577801 
L 363.731757 156.824359 
" style="fill:none;stroke:#3f3f3f;stroke-linecap:round;stroke-width:0.5;"/>
   </g>
   <g id="line2d_37">
    <path clip-path="url(#p82b6e8ac6a)" d="M 375.127006 145.577801 
L 375.127006 156.824359 
" style="fill:none;stroke:#3f3f3f;stroke-linecap:round;stroke-width:0.5;"/>
   </g>
   <g id="line2d_38"/>
   <g id="line2d_39">
    <path clip-path="url(#p82b6e8ac6a)" d="M 232.718658 185.62932 
L 232.005901 185.62932 
" style="fill:none;stroke:#3f3f3f;stroke-linecap:round;stroke-width:0.5;"/>
   </g>
   <g id="line2d_40">
    <path clip-path="url(#p82b6e8ac6a)" d="M 237.352352 185.62932 
L 239.130836 185.62932 
" style="fill:none;stroke:#3f3f3f;stroke-linecap:round;stroke-width:0.5;"/>
   </g>
   <g id="line2d_41">
    <path clip-path="url(#p82b6e8ac6a)" d="M 232.005901 180.006041 
L 232.005901 191.252599 
" style="fill:none;stroke:#3f3f3f;stroke-linecap:round;stroke-width:0.5;"/>
   </g>
   <g id="line2d_42">
    <path clip-path="url(#p82b6e8ac6a)" d="M 239.130836 180.006041 
L 239.130836 191.252599 
" style="fill:none;stroke:#3f3f3f;stroke-linecap:round;stroke-width:0.5;"/>
   </g>
   <g id="line2d_43"/>
   <g id="line2d_44">
    <path clip-path="url(#p82b6e8ac6a)" d="M 569.247545 208.58148 
L 569.241587 208.58148 
" style="fill:none;stroke:#3f3f3f;stroke-linecap:round;stroke-width:0.5;"/>
   </g>
   <g id="line2d_45">
    <path clip-path="url(#p82b6e8ac6a)" d="M 569.331133 208.58148 
L 569.342646 208.58148 
" style="fill:none;stroke:#3f3f3f;stroke-linecap:round;stroke-width:0.5;"/>
   </g>
   <g id="line2d_46">
    <path clip-path="url(#p82b6e8ac6a)" d="M 569.241587 202.958201 
L 569.241587 214.204759 
" style="fill:none;stroke:#3f3f3f;stroke-linecap:round;stroke-width:0.5;"/>
   </g>
   <g id="line2d_47">
    <path clip-path="url(#p82b6e8ac6a)" d="M 569.342646 202.958201 
L 569.342646 214.204759 
" style="fill:none;stroke:#3f3f3f;stroke-linecap:round;stroke-width:0.5;"/>
   </g>
   <g id="line2d_48">
    <g clip-path="url(#p82b6e8ac6a)">
     <use style="fill:#3f3f3f;stroke:#3f3f3f;stroke-linejoin:miter;" x="553.902566" xlink:href="#mf5aa43144a" y="208.58148"/>
     <use style="fill:#3f3f3f;stroke:#3f3f3f;stroke-linejoin:miter;" x="553.762909" xlink:href="#mf5aa43144a" y="208.58148"/>
     <use style="fill:#3f3f3f;stroke:#3f3f3f;stroke-linejoin:miter;" x="585.797245" xlink:href="#mf5aa43144a" y="208.58148"/>
     <use style="fill:#3f3f3f;stroke:#3f3f3f;stroke-linejoin:miter;" x="585.900818" xlink:href="#mf5aa43144a" y="208.58148"/>
    </g>
   </g>
   <g id="line2d_49">
    <path clip-path="url(#p82b6e8ac6a)" d="M 237.349722 243.00972 
L 233.96822 243.00972 
" style="fill:none;stroke:#3f3f3f;stroke-linecap:round;stroke-width:0.5;"/>
   </g>
   <g id="line2d_50">
    <path clip-path="url(#p82b6e8ac6a)" d="M 244.132003 243.00972 
L 246.557362 243.00972 
" style="fill:none;stroke:#3f3f3f;stroke-linecap:round;stroke-width:0.5;"/>
   </g>
   <g id="line2d_51">
    <path clip-path="url(#p82b6e8ac6a)" d="M 233.96822 237.386441 
L 233.96822 248.632999 
" style="fill:none;stroke:#3f3f3f;stroke-linecap:round;stroke-width:0.5;"/>
   </g>
   <g id="line2d_52">
    <path clip-path="url(#p82b6e8ac6a)" d="M 246.557362 237.386441 
L 246.557362 248.632999 
" style="fill:none;stroke:#3f3f3f;stroke-linecap:round;stroke-width:0.5;"/>
   </g>
   <g id="line2d_53">
    <g clip-path="url(#p82b6e8ac6a)">
     <use style="fill:#3f3f3f;stroke:#3f3f3f;stroke-linejoin:miter;" x="157.437914" xlink:href="#mf5aa43144a" y="243.00972"/>
    </g>
   </g>
   <g id="line2d_54">
    <path clip-path="url(#p82b6e8ac6a)" d="M 181.948316 265.96188 
L 175.659239 265.96188 
" style="fill:none;stroke:#3f3f3f;stroke-linecap:round;stroke-width:0.5;"/>
   </g>
   <g id="line2d_55">
    <path clip-path="url(#p82b6e8ac6a)" d="M 387.385058 265.96188 
L 393.889255 265.96188 
" style="fill:none;stroke:#3f3f3f;stroke-linecap:round;stroke-width:0.5;"/>
   </g>
   <g id="line2d_56">
    <path clip-path="url(#p82b6e8ac6a)" d="M 175.659239 260.338601 
L 175.659239 271.585159 
" style="fill:none;stroke:#3f3f3f;stroke-linecap:round;stroke-width:0.5;"/>
   </g>
   <g id="line2d_57">
    <path clip-path="url(#p82b6e8ac6a)" d="M 393.889255 260.338601 
L 393.889255 271.585159 
" style="fill:none;stroke:#3f3f3f;stroke-linecap:round;stroke-width:0.5;"/>
   </g>
   <g id="line2d_58"/>
   <g id="line2d_59">
    <path clip-path="url(#p82b6e8ac6a)" d="M 115.930383 300.39012 
L 115.702684 300.39012 
" style="fill:none;stroke:#3f3f3f;stroke-linecap:round;stroke-width:0.5;"/>
   </g>
   <g id="line2d_60">
    <path clip-path="url(#p82b6e8ac6a)" d="M 116.163113 300.39012 
L 116.393833 300.39012 
" style="fill:none;stroke:#3f3f3f;stroke-linecap:round;stroke-width:0.5;"/>
   </g>
   <g id="line2d_61">
    <path clip-path="url(#p82b6e8ac6a)" d="M 115.702684 294.766841 
L 115.702684 306.013399 
" style="fill:none;stroke:#3f3f3f;stroke-linecap:round;stroke-width:0.5;"/>
   </g>
   <g id="line2d_62">
    <path clip-path="url(#p82b6e8ac6a)" d="M 116.393833 294.766841 
L 116.393833 306.013399 
" style="fill:none;stroke:#3f3f3f;stroke-linecap:round;stroke-width:0.5;"/>
   </g>
   <g id="line2d_63">
    <g clip-path="url(#p82b6e8ac6a)">
     <use style="fill:#3f3f3f;stroke:#3f3f3f;stroke-linejoin:miter;" x="108.557182" xlink:href="#mf5aa43144a" y="300.39012"/>
     <use style="fill:#3f3f3f;stroke:#3f3f3f;stroke-linejoin:miter;" x="118.875556" xlink:href="#mf5aa43144a" y="300.39012"/>
    </g>
   </g>
   <g id="line2d_64">
    <path clip-path="url(#p82b6e8ac6a)" d="M 219.196251 323.34228 
L 218.853338 323.34228 
" style="fill:none;stroke:#3f3f3f;stroke-linecap:round;stroke-width:0.5;"/>
   </g>
   <g id="line2d_65">
    <path clip-path="url(#p82b6e8ac6a)" d="M 220.239739 323.34228 
L 221.639098 323.34228 
" style="fill:none;stroke:#3f3f3f;stroke-linecap:round;stroke-width:0.5;"/>
   </g>
   <g id="line2d_66">
    <path clip-path="url(#p82b6e8ac6a)" d="M 218.853338 317.719001 
L 218.853338 328.965559 
" style="fill:none;stroke:#3f3f3f;stroke-linecap:round;stroke-width:0.5;"/>
   </g>
   <g id="line2d_67">
    <path clip-path="url(#p82b6e8ac6a)" d="M 221.639098 317.719001 
L 221.639098 328.965559 
" style="fill:none;stroke:#3f3f3f;stroke-linecap:round;stroke-width:0.5;"/>
   </g>
   <g id="line2d_68">
    <g clip-path="url(#p82b6e8ac6a)">
     <use style="fill:#3f3f3f;stroke:#3f3f3f;stroke-linejoin:miter;" x="214.856701" xlink:href="#mf5aa43144a" y="323.34228"/>
     <use style="fill:#3f3f3f;stroke:#3f3f3f;stroke-linejoin:miter;" x="149.994525" xlink:href="#mf5aa43144a" y="323.34228"/>
    </g>
   </g>
   <g id="line2d_69">
    <path clip-path="url(#p82b6e8ac6a)" d="M 240.877476 357.77052 
L 240.869522 357.77052 
" style="fill:none;stroke:#3f3f3f;stroke-linecap:round;stroke-width:0.5;"/>
   </g>
   <g id="line2d_70">
    <path clip-path="url(#p82b6e8ac6a)" d="M 244.63126 357.77052 
L 248.507881 357.77052 
" style="fill:none;stroke:#3f3f3f;stroke-linecap:round;stroke-width:0.5;"/>
   </g>
   <g id="line2d_71">
    <path clip-path="url(#p82b6e8ac6a)" d="M 240.869522 352.147241 
L 240.869522 363.393799 
" style="fill:none;stroke:#3f3f3f;stroke-linecap:round;stroke-width:0.5;"/>
   </g>
   <g id="line2d_72">
    <path clip-path="url(#p82b6e8ac6a)" d="M 248.507881 352.147241 
L 248.507881 363.393799 
" style="fill:none;stroke:#3f3f3f;stroke-linecap:round;stroke-width:0.5;"/>
   </g>
   <g id="line2d_73">
    <g clip-path="url(#p82b6e8ac6a)">
     <use style="fill:#3f3f3f;stroke:#3f3f3f;stroke-linejoin:miter;" x="165.934481" xlink:href="#mf5aa43144a" y="357.77052"/>
     <use style="fill:#3f3f3f;stroke:#3f3f3f;stroke-linejoin:miter;" x="169.933681" xlink:href="#mf5aa43144a" y="357.77052"/>
    </g>
   </g>
   <g id="line2d_74">
    <path clip-path="url(#p82b6e8ac6a)" d="M 470.331624 380.72268 
L 467.737803 380.72268 
" style="fill:none;stroke:#3f3f3f;stroke-linecap:round;stroke-width:0.5;"/>
   </g>
   <g id="line2d_75">
    <path clip-path="url(#p82b6e8ac6a)" d="M 489.05531 380.72268 
L 500.480038 380.72268 
" style="fill:none;stroke:#3f3f3f;stroke-linecap:round;stroke-width:0.5;"/>
   </g>
   <g id="line2d_76">
    <path clip-path="url(#p82b6e8ac6a)" d="M 467.737803 375.099401 
L 467.737803 386.345959 
" style="fill:none;stroke:#3f3f3f;stroke-linecap:round;stroke-width:0.5;"/>
   </g>
   <g id="line2d_77">
    <path clip-path="url(#p82b6e8ac6a)" d="M 500.480038 375.099401 
L 500.480038 386.345959 
" style="fill:none;stroke:#3f3f3f;stroke-linecap:round;stroke-width:0.5;"/>
   </g>
   <g id="line2d_78">
    <g clip-path="url(#p82b6e8ac6a)">
     <use style="fill:#3f3f3f;stroke:#3f3f3f;stroke-linejoin:miter;" x="230.709808" xlink:href="#mf5aa43144a" y="380.72268"/>
     <use style="fill:#3f3f3f;stroke:#3f3f3f;stroke-linejoin:miter;" x="229.105258" xlink:href="#mf5aa43144a" y="380.72268"/>
    </g>
   </g>
   <g id="line2d_79">
    <path clip-path="url(#p82b6e8ac6a)" d="M 237.380542 59.621962 
L 237.380542 82.115078 
" style="fill:none;stroke:#3f3f3f;stroke-linecap:round;stroke-width:0.5;"/>
   </g>
   <g id="line2d_80">
    <path clip-path="url(#p82b6e8ac6a)" d="M 419.114502 82.574122 
L 419.114502 105.067238 
" style="fill:none;stroke:#3f3f3f;stroke-linecap:round;stroke-width:0.5;"/>
   </g>
   <g id="line2d_81">
    <path clip-path="url(#p82b6e8ac6a)" d="M 143.930068 117.002362 
L 143.930068 139.495478 
" style="fill:none;stroke:#3f3f3f;stroke-linecap:round;stroke-width:0.5;"/>
   </g>
   <g id="line2d_82">
    <path clip-path="url(#p82b6e8ac6a)" d="M 372.144911 139.954522 
L 372.144911 162.447638 
" style="fill:none;stroke:#3f3f3f;stroke-linecap:round;stroke-width:0.5;"/>
   </g>
   <g id="line2d_83">
    <path clip-path="url(#p82b6e8ac6a)" d="M 235.615365 174.382762 
L 235.615365 196.875878 
" style="fill:none;stroke:#3f3f3f;stroke-linecap:round;stroke-width:0.5;"/>
   </g>
   <g id="line2d_84">
    <path clip-path="url(#p82b6e8ac6a)" d="M 569.27809 197.334922 
L 569.27809 219.828038 
" style="fill:none;stroke:#3f3f3f;stroke-linecap:round;stroke-width:0.5;"/>
   </g>
   <g id="line2d_85">
    <path clip-path="url(#p82b6e8ac6a)" d="M 240.929915 231.763162 
L 240.929915 254.256278 
" style="fill:none;stroke:#3f3f3f;stroke-linecap:round;stroke-width:0.5;"/>
   </g>
   <g id="line2d_86">
    <path clip-path="url(#p82b6e8ac6a)" d="M 283.601947 254.715322 
L 283.601947 277.208438 
" style="fill:none;stroke:#3f3f3f;stroke-linecap:round;stroke-width:0.5;"/>
   </g>
   <g id="line2d_87">
    <path clip-path="url(#p82b6e8ac6a)" d="M 115.934553 289.143562 
L 115.934553 311.636678 
" style="fill:none;stroke:#3f3f3f;stroke-linecap:round;stroke-width:0.5;"/>
   </g>
   <g id="line2d_88">
    <path clip-path="url(#p82b6e8ac6a)" d="M 220.232169 312.095722 
L 220.232169 334.588838 
" style="fill:none;stroke:#3f3f3f;stroke-linecap:round;stroke-width:0.5;"/>
   </g>
   <g id="line2d_89">
    <path clip-path="url(#p82b6e8ac6a)" d="M 241.767477 346.523962 
L 241.767477 369.017078 
" style="fill:none;stroke:#3f3f3f;stroke-linecap:round;stroke-width:0.5;"/>
   </g>
   <g id="line2d_90">
    <path clip-path="url(#p82b6e8ac6a)" d="M 483.5401 369.476122 
L 483.5401 391.969238 
" style="fill:none;stroke:#3f3f3f;stroke-linecap:round;stroke-width:0.5;"/>
   </g>
   <g id="patch_17">
    <path d="M 84.69 397.9368 
L 84.69 53.6544 
" style="fill:none;stroke:#cccccc;stroke-linecap:square;stroke-linejoin:miter;"/>
   </g>
   <g id="patch_18">
    <path d="M 609.768 397.9368 
L 609.768 53.6544 
" style="fill:none;stroke:#cccccc;stroke-linecap:square;stroke-linejoin:miter;"/>
   </g>
   <g id="patch_19">
    <path d="M 84.69 397.9368 
L 609.768 397.9368 
" style="fill:none;stroke:#cccccc;stroke-linecap:square;stroke-linejoin:miter;"/>
   </g>
   <g id="patch_20">
    <path d="M 84.69 53.6544 
L 609.768 53.6544 
" style="fill:none;stroke:#cccccc;stroke-linecap:square;stroke-linejoin:miter;"/>
   </g>
   <g id="legend_1">
    <g id="text_15">
     <!-- env -->
     <defs>
      <path d="M 6.59375 0 
L 6.59375 51.859375 
L 14.5 51.859375 
L 14.5 44.484375 
Q 20.21875 53.03125 31 53.03125 
Q 35.6875 53.03125 39.625 51.34375 
Q 43.5625 49.65625 45.515625 46.921875 
Q 47.46875 44.1875 48.25 40.4375 
Q 48.734375 37.984375 48.734375 31.890625 
L 48.734375 0 
L 39.9375 0 
L 39.9375 31.546875 
Q 39.9375 36.921875 38.90625 39.578125 
Q 37.890625 42.234375 35.28125 43.8125 
Q 32.671875 45.40625 29.15625 45.40625 
Q 23.53125 45.40625 19.453125 41.84375 
Q 15.375 38.28125 15.375 28.328125 
L 15.375 0 
z
" id="ArialMT-6e"/>
      <path d="M 21 0 
L 1.265625 51.859375 
L 10.546875 51.859375 
L 21.6875 20.796875 
Q 23.484375 15.765625 25 10.359375 
Q 26.171875 14.453125 28.265625 20.21875 
L 39.796875 51.859375 
L 48.828125 51.859375 
L 29.203125 0 
z
" id="ArialMT-76"/>
     </defs>
     <g style="fill:#262626;" transform="translate(562.309406 69.812212)scale(0.1 -0.1)">
      <use xlink:href="#ArialMT-65"/>
      <use x="55.615234" xlink:href="#ArialMT-6e"/>
      <use x="111.230469" xlink:href="#ArialMT-76"/>
     </g>
    </g>
    <g id="patch_21">
     <path d="M 539.972687 84.0794 
L 559.972687 84.0794 
L 559.972687 77.0794 
L 539.972687 77.0794 
z
" style="fill:#3274a1;stroke:#3f3f3f;stroke-linejoin:miter;stroke-width:0.25;"/>
    </g>
    <g id="text_16">
     <!-- forpsi -->
     <defs>
      <path d="M 8.6875 0 
L 8.6875 45.015625 
L 0.921875 45.015625 
L 0.921875 51.859375 
L 8.6875 51.859375 
L 8.6875 57.375 
Q 8.6875 62.59375 9.625 65.140625 
Q 10.890625 68.5625 14.078125 70.671875 
Q 17.28125 72.796875 23.046875 72.796875 
Q 26.765625 72.796875 31.25 71.921875 
L 29.9375 64.265625 
Q 27.203125 64.75 24.75 64.75 
Q 20.75 64.75 19.09375 63.03125 
Q 17.4375 61.328125 17.4375 56.640625 
L 17.4375 51.859375 
L 27.546875 51.859375 
L 27.546875 45.015625 
L 17.4375 45.015625 
L 17.4375 0 
z
" id="ArialMT-66"/>
      <path d="M 6.5 0 
L 6.5 51.859375 
L 14.40625 51.859375 
L 14.40625 44 
Q 17.4375 49.515625 20 51.265625 
Q 22.5625 53.03125 25.640625 53.03125 
Q 30.078125 53.03125 34.671875 50.203125 
L 31.640625 42.046875 
Q 28.421875 43.953125 25.203125 43.953125 
Q 22.3125 43.953125 20.015625 42.21875 
Q 17.71875 40.484375 16.75 37.40625 
Q 15.28125 32.71875 15.28125 27.15625 
L 15.28125 0 
z
" id="ArialMT-72"/>
      <path d="M 6.640625 61.46875 
L 6.640625 71.578125 
L 15.4375 71.578125 
L 15.4375 61.46875 
z
M 6.640625 0 
L 6.640625 51.859375 
L 15.4375 51.859375 
L 15.4375 0 
z
" id="ArialMT-69"/>
     </defs>
     <g style="fill:#262626;" transform="translate(567.972687 84.0794)scale(0.1 -0.1)">
      <use xlink:href="#ArialMT-66"/>
      <use x="27.783203" xlink:href="#ArialMT-6f"/>
      <use x="83.398438" xlink:href="#ArialMT-72"/>
      <use x="116.699219" xlink:href="#ArialMT-70"/>
      <use x="172.314453" xlink:href="#ArialMT-73"/>
      <use x="222.314453" xlink:href="#ArialMT-69"/>
     </g>
    </g>
    <g id="patch_22">
     <path d="M 539.972687 98.224712 
L 559.972687 98.224712 
L 559.972687 91.224712 
L 539.972687 91.224712 
z
" style="fill:#e1812c;stroke:#3f3f3f;stroke-linejoin:miter;stroke-width:0.25;"/>
    </g>
    <g id="text_17">
     <!-- c4large -->
     <defs>
      <path d="M 40.4375 19 
L 49.078125 17.875 
Q 47.65625 8.9375 41.8125 3.875 
Q 35.984375 -1.171875 27.484375 -1.171875 
Q 16.84375 -1.171875 10.375 5.78125 
Q 3.90625 12.75 3.90625 25.734375 
Q 3.90625 34.125 6.6875 40.421875 
Q 9.46875 46.734375 15.15625 49.875 
Q 20.84375 53.03125 27.546875 53.03125 
Q 35.984375 53.03125 41.359375 48.75 
Q 46.734375 44.484375 48.25 36.625 
L 39.703125 35.296875 
Q 38.484375 40.53125 35.375 43.15625 
Q 32.28125 45.796875 27.875 45.796875 
Q 21.234375 45.796875 17.078125 41.03125 
Q 12.9375 36.28125 12.9375 25.984375 
Q 12.9375 15.53125 16.9375 10.796875 
Q 20.953125 6.0625 27.390625 6.0625 
Q 32.5625 6.0625 36.03125 9.234375 
Q 39.5 12.40625 40.4375 19 
z
" id="ArialMT-63"/>
      <path d="M 40.4375 6.390625 
Q 35.546875 2.25 31.03125 0.53125 
Q 26.515625 -1.171875 21.34375 -1.171875 
Q 12.796875 -1.171875 8.203125 3 
Q 3.609375 7.171875 3.609375 13.671875 
Q 3.609375 17.484375 5.34375 20.625 
Q 7.078125 23.78125 9.890625 25.6875 
Q 12.703125 27.59375 16.21875 28.5625 
Q 18.796875 29.25 24.03125 29.890625 
Q 34.671875 31.15625 39.703125 32.90625 
Q 39.75 34.71875 39.75 35.203125 
Q 39.75 40.578125 37.25 42.78125 
Q 33.890625 45.75 27.25 45.75 
Q 21.046875 45.75 18.09375 43.578125 
Q 15.140625 41.40625 13.71875 35.890625 
L 5.125 37.0625 
Q 6.296875 42.578125 8.984375 45.96875 
Q 11.671875 49.359375 16.75 51.1875 
Q 21.828125 53.03125 28.515625 53.03125 
Q 35.15625 53.03125 39.296875 51.46875 
Q 43.453125 49.90625 45.40625 47.53125 
Q 47.359375 45.171875 48.140625 41.546875 
Q 48.578125 39.3125 48.578125 33.453125 
L 48.578125 21.734375 
Q 48.578125 9.46875 49.140625 6.21875 
Q 49.703125 2.984375 51.375 0 
L 42.1875 0 
Q 40.828125 2.734375 40.4375 6.390625 
z
M 39.703125 26.03125 
Q 34.90625 24.078125 25.34375 22.703125 
Q 19.921875 21.921875 17.671875 20.9375 
Q 15.4375 19.96875 14.203125 18.09375 
Q 12.984375 16.21875 12.984375 13.921875 
Q 12.984375 10.40625 15.640625 8.0625 
Q 18.3125 5.71875 23.4375 5.71875 
Q 28.515625 5.71875 32.46875 7.9375 
Q 36.421875 10.15625 38.28125 14.015625 
Q 39.703125 17 39.703125 22.796875 
z
" id="ArialMT-61"/>
     </defs>
     <g style="fill:#262626;" transform="translate(567.972687 98.224712)scale(0.1 -0.1)">
      <use xlink:href="#ArialMT-63"/>
      <use x="50" xlink:href="#ArialMT-34"/>
      <use x="105.615234" xlink:href="#ArialMT-6c"/>
      <use x="127.832031" xlink:href="#ArialMT-61"/>
      <use x="183.447266" xlink:href="#ArialMT-72"/>
      <use x="216.748047" xlink:href="#ArialMT-67"/>
      <use x="272.363281" xlink:href="#ArialMT-65"/>
     </g>
    </g>
   </g>
  </g>
 </g>
 <defs>
  <clipPath id="p82b6e8ac6a">
   <rect height="344.2824" width="525.078" x="84.69" y="53.6544"/>
  </clipPath>
 </defs>
</svg>
